SplineFontDB: 3.2
FontName: Pixel-17x17-Condensed
FullName: Pixel-17x17 Condensed
FamilyName: Pixel-17x17
Weight: Regular
Copyright: Copyright (c) 2024, CTCL
UComments: "2024-6-10: Created with FontForge (http://fontforge.org)"
Version: 001.000
ItalicAngle: 0
UnderlinePosition: -0.046
UnderlineWidth: 0.023
Ascent: 17
Descent: 6
InvalidEm: 0
LayerCount: 2
Layer: 0 0 "Back" 1
Layer: 1 0 "Fore" 0
XUID: [1021 591 -1735377019 13380755]
OS2Version: 0
OS2_WeightWidthSlopeOnly: 0
OS2_UseTypoMetrics: 1
CreationTime: 1718050508
ModificationTime: 1718063235
OS2TypoAscent: 0
OS2TypoAOffset: 1
OS2TypoDescent: 0
OS2TypoDOffset: 1
OS2TypoLinegap: 0
OS2WinAscent: 0
OS2WinAOffset: 1
OS2WinDescent: 0
OS2WinDOffset: 1
HheadAscent: 0
HheadAOffset: 1
HheadDescent: 0
HheadDOffset: 1
OS2Vendor: 'PfEd'
MarkAttachClasses: 1
DEI: 91125
Encoding: ISO8859-1
UnicodeInterp: none
NameList: AGL For New Fonts
DisplaySize: -48
AntiAlias: 1
FitToEm: 0
WinInfo: 0 38 14
BeginPrivate: 0
EndPrivate
BeginChars: 256 94

StartChar: parenleft
Encoding: 40 40 0
Width: 16
Flags: HW
LayerCount: 2
Fore
SplineSet
3 17 m 1
 4 17 l 1
 5 17 l 1
 6 17 l 1
 6 16 l 1
 6 15 l 1
 6 14 l 1
 5 14 l 1
 5 13 l 1
 4 13 l 1
 4 12 l 1
 3 12 l 1
 3 11 l 1
 3 10 l 1
 3 9 l 1
 3 8 l 1
 3 7 l 1
 3 6 l 1
 3 5 l 1
 4 5 l 1
 4 4 l 1
 5 4 l 1
 5 3 l 1
 6 3 l 1
 6 2 l 1
 6 1 l 1
 6 0 l 1
 5 0 l 1
 4 0 l 1
 3 0 l 1
 3 1 l 1
 2 1 l 1
 2 2 l 1
 1 2 l 1
 1 3 l 1
 0 3 l 1
 0 4 l 1
 0 5 l 1
 0 6 l 1
 0 7 l 1
 0 8 l 1
 0 9 l 1
 0 10 l 1
 0 11 l 1
 0 12 l 1
 0 13 l 1
 0 14 l 1
 1 14 l 1
 1 15 l 1
 2 15 l 1
 2 16 l 1
 3 16 l 1
 3 17 l 1
EndSplineSet
EndChar

StartChar: exclam
Encoding: 33 33 1
Width: 6
Flags: HW
LayerCount: 2
Fore
SplineSet
0 17 m 1
 1 17 l 1
 2 17 l 1
 3 17 l 1
 3 16 l 1
 3 15 l 1
 3 14 l 1
 3 13 l 1
 3 12 l 1
 3 11 l 1
 3 10 l 1
 3 9 l 1
 3 8 l 1
 3 7 l 1
 3 6 l 1
 3 5 l 1
 3 4 l 5
 2 4 l 1
 1 4 l 1
 0 4 l 1
 0 5 l 1
 0 6 l 1
 0 7 l 1
 0 8 l 1
 0 9 l 1
 0 10 l 1
 0 11 l 1
 0 12 l 1
 0 13 l 1
 0 14 l 1
 0 15 l 1
 0 16 l 1
 0 17 l 1
0 3 m 1
 1 3 l 1
 2 3 l 1
 3 3 l 1
 3 2 l 1
 3 1 l 1
 3 0 l 1
 2 0 l 1
 1 0 l 1
 0 0 l 1
 0 1 l 1
 0 2 l 1
 0 3 l 1
EndSplineSet
EndChar

StartChar: quotedbl
Encoding: 34 34 2
Width: 23
Flags: H
LayerCount: 2
Fore
SplineSet
0 17 m 1
 1 17 l 1
 2 17 l 1
 3 17 l 1
 3 16 l 1
 3 15 l 1
 3 14 l 1
 3 13 l 1
 3 12 l 1
 2 12 l 1
 1 12 l 1
 0 12 l 1
 0 13 l 1
 0 14 l 1
 0 15 l 1
 0 16 l 1
 0 17 l 1
6 17 m 1
 7 17 l 1
 8 17 l 1
 9 17 l 1
 9 16 l 1
 9 15 l 1
 9 14 l 1
 9 13 l 1
 9 12 l 1
 8 12 l 1
 7 12 l 1
 6 12 l 1
 6 13 l 1
 6 14 l 1
 6 15 l 1
 6 16 l 1
 6 17 l 1
EndSplineSet
EndChar

StartChar: numbersign
Encoding: 35 35 3
Width: 16
Flags: HW
LayerCount: 2
Fore
SplineSet
2 17 m 1
 3 17 l 1
 4 17 l 1
 5 17 l 1
 5 16 l 1
 5 15 l 1
 5 14 l 1
 5 13 l 1
 6 13 l 1
 7 13 l 1
 8 13 l 1
 8 14 l 1
 8 15 l 1
 8 16 l 1
 8 17 l 1
 9 17 l 1
 10 17 l 1
 11 17 l 1
 11 16 l 1
 11 15 l 1
 11 14 l 1
 11 13 l 1
 12 13 l 1
 13 13 l 1
 13 12 l 1
 13 11 l 1
 13 10 l 1
 12 10 l 1
 11 10 l 1
 11 9 l 1
 11 8 l 1
 11 7 l 1
 12 7 l 1
 13 7 l 1
 13 6 l 1
 13 5 l 1
 13 4 l 1
 12 4 l 1
 11 4 l 1
 11 3 l 1
 11 2 l 1
 11 1 l 1
 11 0 l 1
 10 0 l 1
 9 0 l 1
 8 0 l 1
 8 1 l 1
 8 2 l 1
 8 3 l 1
 8 4 l 1
 7 4 l 1
 6 4 l 1
 5 4 l 1
 5 3 l 1
 5 2 l 1
 5 1 l 1
 5 0 l 1
 4 0 l 1
 3 0 l 1
 2 0 l 1
 2 1 l 1
 2 2 l 1
 2 3 l 1
 2 4 l 1
 1 4 l 1
 0 4 l 1
 0 5 l 1
 0 6 l 1
 0 7 l 1
 1 7 l 1
 2 7 l 1
 2 8 l 1
 2 9 l 1
 2 10 l 1
 1 10 l 1
 0 10 l 1
 0 11 l 1
 0 12 l 1
 0 13 l 1
 1 13 l 1
 2 13 l 1
 2 14 l 1
 2 15 l 1
 2 16 l 1
 2 17 l 1
5 10 m 1
 5 9 l 1
 5 8 l 1
 5 7 l 1
 6 7 l 1
 7 7 l 1
 8 7 l 1
 8 8 l 1
 8 9 l 1
 8 10 l 1
 7 10 l 1
 6 10 l 1
 5 10 l 1
EndSplineSet
EndChar

StartChar: dollar
Encoding: 36 36 4
Width: 16
Flags: HW
LayerCount: 2
Fore
SplineSet
5 17 m 1
 6 17 l 1
 7 17 l 1
 8 17 l 1
 8 16 l 1
 8 15 l 1
 9 15 l 1
 10 15 l 1
 11 15 l 1
 11 14 l 1
 12 14 l 1
 12 13 l 1
 13 13 l 1
 13 12 l 1
 12 12 l 1
 11 12 l 1
 10 12 l 1
 9 12 l 1
 8 12 l 1
 8 11 l 1
 8 10 l 1
 9 10 l 1
 10 10 l 1
 11 10 l 1
 11 9 l 1
 12 9 l 1
 12 8 l 1
 13 8 l 1
 13 7 l 1
 13 6 l 1
 13 5 l 1
 13 4 l 1
 12 4 l 1
 12 3 l 1
 11 3 l 1
 11 2 l 1
 10 2 l 1
 9 2 l 1
 8 2 l 1
 8 1 l 1
 8 0 l 1
 7 0 l 1
 6 0 l 1
 5 0 l 1
 5 1 l 1
 5 2 l 1
 4 2 l 1
 3 2 l 1
 2 2 l 1
 2 3 l 1
 1 3 l 1
 1 4 l 1
 0 4 l 1
 0 5 l 1
 1 5 l 1
 2 5 l 1
 3 5 l 1
 4 5 l 1
 5 5 l 1
 5 6 l 1
 5 7 l 1
 4 7 l 1
 3 7 l 1
 2 7 l 1
 2 8 l 1
 1 8 l 1
 1 9 l 1
 0 9 l 1
 0 10 l 1
 0 11 l 1
 0 12 l 1
 0 13 l 1
 1 13 l 1
 1 14 l 1
 2 14 l 1
 2 15 l 1
 3 15 l 1
 4 15 l 1
 5 15 l 1
 5 16 l 1
 5 17 l 1
4 12 m 1
 4 11 l 1
 4 10 l 1
 5 10 l 1
 5 11 l 1
 5 12 l 1
 4 12 l 1
8 7 m 1
 8 6 l 1
 8 5 l 1
 9 5 l 1
 9 6 l 1
 9 7 l 1
 8 7 l 1
EndSplineSet
EndChar

StartChar: percent
Encoding: 37 37 5
Width: 16
Flags: HW
LayerCount: 2
Fore
SplineSet
0 17 m 5
 1 17 l 5
 2 17 l 5
 3 17 l 5
 4 17 l 5
 5 17 l 5
 5 16 l 5
 5 15 l 5
 5 14 l 5
 5 13 l 5
 5 12 l 5
 5 11 l 5
 4 11 l 5
 3 11 l 5
 2 11 l 5
 1 11 l 5
 0 11 l 5
 0 12 l 5
 0 13 l 5
 0 14 l 5
 0 15 l 5
 0 16 l 5
 0 17 l 5
10 17 m 5
 11 17 l 5
 12 17 l 5
 13 17 l 5
 13 16 l 5
 13 15 l 5
 13 14 l 5
 13 13 l 5
 13 12 l 5
 12 12 l 5
 12 11 l 5
 11 11 l 5
 11 10 l 5
 10 10 l 5
 10 9 l 5
 9 9 l 5
 9 8 l 5
 8 8 l 5
 8 7 l 5
 7 7 l 5
 7 6 l 5
 6 6 l 5
 6 5 l 5
 5 5 l 5
 5 4 l 5
 4 4 l 5
 4 3 l 5
 3 3 l 5
 3 2 l 5
 3 1 l 5
 3 0 l 5
 2 0 l 5
 1 0 l 5
 0 0 l 5
 0 1 l 5
 0 2 l 5
 0 3 l 5
 0 4 l 5
 0 5 l 5
 1 5 l 5
 1 6 l 5
 2 6 l 5
 2 7 l 5
 3 7 l 5
 3 8 l 5
 4 8 l 5
 4 9 l 5
 5 9 l 5
 5 10 l 5
 6 10 l 5
 6 11 l 5
 7 11 l 5
 7 12 l 5
 8 12 l 5
 8 13 l 5
 9 13 l 5
 9 14 l 5
 10 14 l 5
 10 15 l 5
 10 16 l 5
 10 17 l 5
2 15 m 5
 2 14 l 5
 2 13 l 5
 3 13 l 5
 3 14 l 5
 3 15 l 5
 2 15 l 5
8 6 m 5
 9 6 l 5
 10 6 l 5
 11 6 l 5
 12 6 l 5
 13 6 l 5
 13 5 l 5
 13 4 l 5
 13 3 l 5
 13 2 l 5
 13 1 l 5
 13 0 l 5
 12 0 l 5
 11 0 l 5
 10 0 l 5
 9 0 l 5
 8 0 l 5
 8 1 l 5
 8 2 l 5
 8 3 l 5
 8 4 l 5
 8 5 l 5
 8 6 l 5
10 4 m 5
 10 3 l 5
 10 2 l 5
 11 2 l 5
 11 3 l 5
 11 4 l 5
 10 4 l 5
EndSplineSet
EndChar

StartChar: quotesingle
Encoding: 39 39 7
Width: 6
Flags: HW
LayerCount: 2
Fore
SplineSet
0 17 m 1
 1 17 l 1
 2 17 l 1
 3 17 l 1
 3 16 l 1
 3 15 l 1
 3 14 l 1
 3 13 l 1
 3 12 l 1
 2 12 l 1
 1 12 l 1
 0 12 l 1
 0 13 l 1
 0 14 l 1
 0 15 l 1
 0 16 l 1
 0 17 l 1
EndSplineSet
EndChar

StartChar: parenright
Encoding: 41 41 8
Width: 16
Flags: HW
LayerCount: 2
Fore
SplineSet
0 17 m 1
 1 17 l 1
 2 17 l 1
 3 17 l 1
 3 16 l 1
 4 16 l 1
 4 15 l 1
 5 15 l 1
 5 14 l 1
 6 14 l 1
 6 13 l 1
 6 12 l 1
 6 11 l 1
 6 10 l 1
 6 9 l 1
 6 8 l 1
 6 7 l 1
 6 6 l 1
 6 5 l 1
 6 4 l 1
 6 3 l 1
 5 3 l 1
 5 2 l 1
 4 2 l 1
 4 1 l 1
 3 1 l 1
 3 0 l 1
 2 0 l 1
 1 0 l 1
 0 0 l 1
 0 1 l 1
 0 2 l 1
 0 3 l 1
 1 3 l 1
 1 4 l 1
 2 4 l 1
 2 5 l 1
 3 5 l 1
 3 6 l 1
 3 7 l 1
 3 8 l 1
 3 9 l 1
 3 10 l 1
 3 11 l 1
 3 12 l 1
 2 12 l 1
 2 13 l 1
 1 13 l 1
 1 14 l 1
 0 14 l 1
 0 15 l 1
 0 16 l 1
 0 17 l 1
EndSplineSet
EndChar

StartChar: asterisk
Encoding: 42 42 9
Width: 10
Flags: HW
LayerCount: 2
Fore
SplineSet
0 17 m 1
 1 17 l 1
 2 17 l 1
 2 16 l 1
 3 16 l 1
 3 15 l 1
 4 15 l 1
 4 16 l 1
 5 16 l 1
 5 17 l 1
 6 17 l 1
 7 17 l 1
 7 16 l 1
 7 15 l 1
 6 15 l 1
 6 14 l 1
 5 14 l 1
 5 13 l 1
 6 13 l 1
 6 12 l 1
 7 12 l 1
 7 11 l 1
 7 10 l 1
 6 10 l 1
 5 10 l 1
 5 11 l 1
 4 11 l 1
 4 12 l 1
 3 12 l 1
 3 11 l 1
 2 11 l 1
 2 10 l 1
 1 10 l 1
 0 10 l 1
 0 11 l 1
 0 12 l 1
 1 12 l 1
 1 13 l 1
 2 13 l 1
 2 14 l 1
 1 14 l 1
 1 15 l 1
 0 15 l 1
 0 16 l 1
 0 17 l 1
EndSplineSet
EndChar

StartChar: plus
Encoding: 43 43 10
Width: 16
Flags: HW
LayerCount: 2
Fore
SplineSet
5 15 m 1
 6 15 l 1
 7 15 l 1
 8 15 l 1
 8 14 l 1
 8 13 l 1
 8 12 l 1
 8 11 l 1
 8 10 l 1
 9 10 l 1
 10 10 l 1
 11 10 l 1
 12 10 l 1
 13 10 l 1
 13 9 l 1
 13 8 l 1
 13 7 l 1
 12 7 l 1
 11 7 l 1
 10 7 l 1
 9 7 l 1
 8 7 l 1
 8 6 l 1
 8 5 l 1
 8 4 l 1
 8 3 l 1
 8 2 l 1
 7 2 l 1
 6 2 l 1
 5 2 l 1
 5 3 l 1
 5 4 l 1
 5 5 l 1
 5 6 l 1
 5 7 l 1
 4 7 l 1
 3 7 l 1
 2 7 l 1
 1 7 l 1
 0 7 l 1
 0 8 l 1
 0 9 l 1
 0 10 l 1
 1 10 l 1
 2 10 l 1
 3 10 l 1
 4 10 l 1
 5 10 l 1
 5 11 l 1
 5 12 l 1
 5 13 l 1
 5 14 l 1
 5 15 l 1
EndSplineSet
EndChar

StartChar: comma
Encoding: 44 44 11
Width: 6
Flags: HW
LayerCount: 2
Fore
SplineSet
0 3 m 1
 1 3 l 1
 2 3 l 1
 3 3 l 1
 3 2 l 1
 3 1 l 1
 3 0 l 1
 3 -1 l 1
 3 -2 l 1
 3 -3 l 1
 2 -3 l 1
 1 -3 l 1
 0 -3 l 1
 0 -2 l 1
 0 -1 l 1
 0 0 l 1
 0 1 l 1
 0 2 l 1
 0 3 l 1
EndSplineSet
EndChar

StartChar: hyphen
Encoding: 45 45 12
Width: 12
Flags: HW
LayerCount: 2
Fore
SplineSet
0 10 m 1
 1 10 l 1
 2 10 l 1
 3 10 l 1
 4 10 l 1
 5 10 l 1
 6 10 l 1
 7 10 l 1
 8 10 l 1
 9 10 l 1
 9 9 l 1
 9 8 l 1
 9 7 l 1
 8 7 l 1
 7 7 l 1
 6 7 l 1
 5 7 l 1
 4 7 l 1
 3 7 l 1
 2 7 l 1
 1 7 l 1
 0 7 l 1
 0 8 l 1
 0 9 l 1
 0 10 l 1
EndSplineSet
EndChar

StartChar: period
Encoding: 46 46 13
Width: 6
Flags: HW
LayerCount: 2
Fore
SplineSet
0 3 m 1
 1 3 l 1
 2 3 l 1
 3 3 l 1
 3 2 l 1
 3 1 l 1
 3 0 l 1
 2 0 l 1
 1 0 l 1
 0 0 l 1
 0 1 l 1
 0 2 l 1
 0 3 l 1
EndSplineSet
EndChar

StartChar: slash
Encoding: 47 47 14
Width: 16
Flags: HW
LayerCount: 2
Fore
SplineSet
10 17 m 1
 11 17 l 1
 12 17 l 1
 13 17 l 1
 13 16 l 1
 13 15 l 1
 13 14 l 1
 13 13 l 1
 13 12 l 1
 12 12 l 1
 12 11 l 1
 11 11 l 1
 11 10 l 1
 10 10 l 1
 10 9 l 1
 9 9 l 1
 9 8 l 1
 8 8 l 1
 8 7 l 1
 7 7 l 1
 7 6 l 1
 6 6 l 1
 6 5 l 1
 5 5 l 1
 5 4 l 1
 4 4 l 1
 4 3 l 1
 3 3 l 1
 3 2 l 1
 3 1 l 1
 3 0 l 1
 2 0 l 1
 1 0 l 1
 0 0 l 1
 0 1 l 1
 0 2 l 1
 0 3 l 1
 0 4 l 1
 0 5 l 1
 1 5 l 1
 1 6 l 1
 2 6 l 1
 2 7 l 1
 3 7 l 1
 3 8 l 1
 4 8 l 1
 4 9 l 1
 5 9 l 1
 5 10 l 1
 6 10 l 1
 6 11 l 1
 7 11 l 1
 7 12 l 1
 8 12 l 1
 8 13 l 1
 9 13 l 1
 9 14 l 1
 10 14 l 1
 10 15 l 1
 10 16 l 1
 10 17 l 1
EndSplineSet
EndChar

StartChar: zero
Encoding: 48 48 15
Width: 16
Flags: HW
LayerCount: 2
Fore
SplineSet
2 17 m 1
 3 17 l 1
 4 17 l 1
 5 17 l 1
 6 17 l 1
 7 17 l 1
 8 17 l 1
 9 17 l 1
 10 17 l 1
 11 17 l 1
 11 16 l 1
 12 16 l 1
 12 15 l 1
 13 15 l 1
 13 14 l 1
 13 13 l 1
 13 12 l 1
 13 11 l 1
 13 10 l 1
 13 9 l 1
 13 8 l 1
 13 7 l 1
 13 6 l 1
 13 5 l 1
 13 4 l 1
 13 3 l 1
 13 2 l 1
 12 2 l 1
 12 1 l 1
 11 1 l 1
 11 0 l 1
 10 0 l 1
 9 0 l 1
 8 0 l 1
 7 0 l 1
 6 0 l 1
 5 0 l 1
 4 0 l 1
 3 0 l 1
 2 0 l 1
 2 1 l 1
 1 1 l 1
 1 2 l 1
 0 2 l 1
 0 3 l 1
 0 4 l 1
 0 5 l 1
 0 6 l 1
 0 7 l 1
 0 8 l 1
 0 9 l 1
 0 10 l 1
 0 11 l 1
 0 12 l 1
 0 13 l 1
 0 14 l 1
 0 15 l 1
 1 15 l 1
 1 16 l 1
 2 16 l 1
 2 17 l 1
4 14 m 1
 4 13 l 1
 5 13 l 1
 5 12 l 1
 6 12 l 1
 6 11 l 1
 7 11 l 1
 7 10 l 1
 8 10 l 1
 8 9 l 1
 9 9 l 1
 9 8 l 1
 10 8 l 1
 10 9 l 1
 10 10 l 1
 10 11 l 1
 10 12 l 1
 10 13 l 1
 9 13 l 1
 9 14 l 1
 8 14 l 1
 7 14 l 1
 6 14 l 1
 5 14 l 1
 4 14 l 1
3 9 m 1
 3 8 l 1
 3 7 l 1
 3 6 l 1
 3 5 l 1
 3 4 l 1
 4 4 l 1
 4 3 l 1
 5 3 l 1
 6 3 l 1
 7 3 l 1
 8 3 l 1
 9 3 l 1
 9 4 l 1
 8 4 l 1
 8 5 l 1
 7 5 l 1
 7 6 l 1
 6 6 l 1
 6 7 l 1
 5 7 l 1
 5 8 l 1
 4 8 l 1
 4 9 l 1
 3 9 l 1
EndSplineSet
EndChar

StartChar: one
Encoding: 49 49 16
Width: 16
Flags: HW
LayerCount: 2
Fore
SplineSet
5 17 m 1
 6 17 l 1
 7 17 l 1
 8 17 l 1
 8 16 l 1
 8 15 l 1
 8 14 l 1
 8 13 l 1
 8 12 l 1
 8 11 l 1
 8 10 l 1
 8 9 l 1
 8 8 l 1
 8 7 l 1
 8 6 l 1
 8 5 l 1
 8 4 l 1
 8 3 l 1
 9 3 l 1
 10 3 l 1
 11 3 l 1
 12 3 l 1
 13 3 l 1
 13 2 l 1
 13 1 l 1
 13 0 l 1
 12 0 l 1
 11 0 l 1
 10 0 l 1
 9 0 l 1
 8 0 l 1
 7 0 l 1
 6 0 l 1
 5 0 l 1
 4 0 l 1
 3 0 l 1
 2 0 l 1
 1 0 l 1
 0 0 l 1
 0 1 l 1
 0 2 l 1
 0 3 l 1
 1 3 l 1
 2 3 l 1
 3 3 l 1
 4 3 l 1
 5 3 l 1
 5 4 l 1
 5 5 l 1
 5 6 l 1
 5 7 l 1
 5 8 l 1
 5 9 l 1
 5 10 l 1
 5 11 l 1
 5 12 l 1
 5 13 l 1
 4 13 l 1
 3 13 l 1
 2 13 l 1
 2 14 l 1
 3 14 l 1
 3 15 l 1
 4 15 l 1
 4 16 l 1
 5 16 l 1
 5 17 l 1
EndSplineSet
EndChar

StartChar: two
Encoding: 50 50 17
Width: 16
Flags: HW
LayerCount: 2
Fore
SplineSet
2 17 m 1
 3 17 l 1
 4 17 l 1
 5 17 l 1
 6 17 l 1
 7 17 l 1
 8 17 l 1
 9 17 l 1
 10 17 l 1
 11 17 l 1
 11 16 l 1
 12 16 l 1
 12 15 l 1
 13 15 l 1
 13 14 l 1
 13 13 l 1
 13 12 l 1
 13 11 l 1
 12 11 l 1
 12 10 l 1
 11 10 l 1
 11 9 l 1
 10 9 l 1
 10 8 l 1
 9 8 l 1
 9 7 l 1
 8 7 l 1
 8 6 l 1
 7 6 l 1
 7 5 l 1
 6 5 l 1
 6 4 l 1
 5 4 l 1
 5 3 l 1
 6 3 l 1
 7 3 l 1
 8 3 l 1
 9 3 l 1
 10 3 l 1
 11 3 l 1
 12 3 l 1
 13 3 l 1
 13 2 l 1
 13 1 l 1
 13 0 l 1
 12 0 l 1
 11 0 l 1
 10 0 l 1
 9 0 l 1
 8 0 l 1
 7 0 l 1
 6 0 l 1
 5 0 l 1
 4 0 l 1
 3 0 l 1
 2 0 l 1
 1 0 l 1
 0 0 l 1
 0 1 l 1
 0 2 l 1
 0 3 l 1
 1 3 l 1
 1 4 l 1
 2 4 l 1
 2 5 l 1
 3 5 l 1
 3 6 l 1
 4 6 l 1
 4 7 l 1
 5 7 l 1
 5 8 l 1
 6 8 l 1
 6 9 l 1
 7 9 l 1
 7 10 l 1
 8 10 l 1
 8 11 l 1
 9 11 l 1
 9 12 l 1
 10 12 l 1
 10 13 l 1
 9 13 l 1
 9 14 l 1
 8 14 l 1
 7 14 l 1
 6 14 l 1
 5 14 l 1
 4 14 l 1
 4 13 l 1
 3 13 l 1
 3 12 l 1
 2 12 l 1
 1 12 l 1
 0 12 l 1
 0 13 l 1
 0 14 l 1
 0 15 l 1
 1 15 l 1
 1 16 l 1
 2 16 l 1
 2 17 l 1
EndSplineSet
EndChar

StartChar: three
Encoding: 51 51 18
Width: 16
Flags: HW
LayerCount: 2
Fore
SplineSet
2 17 m 1
 3 17 l 1
 4 17 l 1
 5 17 l 1
 6 17 l 1
 7 17 l 1
 8 17 l 1
 9 17 l 1
 10 17 l 1
 11 17 l 1
 11 16 l 1
 12 16 l 1
 12 15 l 1
 13 15 l 1
 13 14 l 1
 13 13 l 1
 13 12 l 1
 13 11 l 1
 13 10 l 1
 12 10 l 1
 12 9 l 1
 11 9 l 1
 11 8 l 1
 12 8 l 1
 12 7 l 1
 13 7 l 1
 13 6 l 1
 13 5 l 1
 13 4 l 1
 13 3 l 1
 13 2 l 1
 12 2 l 1
 12 1 l 1
 11 1 l 1
 11 0 l 1
 10 0 l 1
 9 0 l 1
 8 0 l 1
 7 0 l 1
 6 0 l 1
 5 0 l 1
 4 0 l 1
 3 0 l 1
 2 0 l 1
 2 1 l 1
 1 1 l 1
 1 2 l 1
 0 2 l 1
 0 3 l 1
 0 4 l 1
 0 5 l 1
 1 5 l 1
 2 5 l 1
 3 5 l 1
 3 4 l 1
 4 4 l 1
 4 3 l 1
 5 3 l 1
 6 3 l 1
 7 3 l 1
 8 3 l 1
 9 3 l 1
 9 4 l 1
 10 4 l 1
 10 5 l 1
 10 6 l 1
 9 6 l 1
 9 7 l 1
 8 7 l 1
 7 7 l 1
 6 7 l 1
 5 7 l 1
 4 7 l 1
 4 8 l 1
 4 9 l 1
 4 10 l 1
 5 10 l 1
 6 10 l 1
 7 10 l 1
 8 10 l 1
 9 10 l 1
 9 11 l 1
 10 11 l 1
 10 12 l 1
 10 13 l 1
 9 13 l 1
 9 14 l 1
 8 14 l 1
 7 14 l 1
 6 14 l 1
 5 14 l 1
 4 14 l 1
 4 13 l 1
 3 13 l 1
 3 12 l 1
 2 12 l 1
 1 12 l 1
 0 12 l 1
 0 13 l 1
 0 14 l 1
 0 15 l 1
 1 15 l 1
 1 16 l 1
 2 16 l 1
 2 17 l 1
EndSplineSet
EndChar

StartChar: four
Encoding: 52 52 19
Width: 16
Flags: HW
LayerCount: 2
Fore
SplineSet
5 17 m 1
 6 17 l 1
 7 17 l 1
 8 17 l 1
 9 17 l 1
 10 17 l 1
 10 16 l 1
 10 15 l 1
 10 14 l 1
 10 13 l 1
 10 12 l 1
 10 11 l 1
 10 10 l 1
 11 10 l 1
 12 10 l 1
 13 10 l 1
 13 9 l 1
 13 8 l 1
 13 7 l 1
 12 7 l 1
 11 7 l 1
 10 7 l 1
 10 6 l 1
 10 5 l 1
 10 4 l 1
 10 3 l 1
 10 2 l 1
 10 1 l 1
 10 0 l 1
 9 0 l 1
 8 0 l 1
 7 0 l 1
 7 1 l 1
 7 2 l 1
 7 3 l 1
 7 4 l 1
 7 5 l 1
 7 6 l 1
 7 7 l 1
 6 7 l 1
 5 7 l 1
 4 7 l 1
 3 7 l 1
 2 7 l 1
 1 7 l 1
 0 7 l 1
 0 8 l 1
 0 9 l 1
 0 10 l 1
 0 11 l 1
 0 12 l 1
 1 12 l 1
 1 13 l 1
 2 13 l 1
 2 14 l 1
 3 14 l 1
 3 15 l 1
 4 15 l 1
 4 16 l 1
 5 16 l 1
 5 17 l 1
6 14 m 1
 6 13 l 1
 5 13 l 1
 5 12 l 1
 4 12 l 1
 4 11 l 1
 3 11 l 1
 3 10 l 1
 4 10 l 1
 5 10 l 1
 6 10 l 1
 7 10 l 1
 7 11 l 1
 7 12 l 1
 7 13 l 1
 7 14 l 1
 6 14 l 1
EndSplineSet
EndChar

StartChar: five
Encoding: 53 53 20
Width: 16
Flags: HW
LayerCount: 2
Fore
SplineSet
0 17 m 1
 1 17 l 1
 2 17 l 1
 3 17 l 1
 4 17 l 1
 5 17 l 1
 6 17 l 1
 7 17 l 1
 8 17 l 1
 9 17 l 1
 10 17 l 1
 11 17 l 1
 12 17 l 1
 13 17 l 1
 13 16 l 1
 13 15 l 1
 13 14 l 1
 12 14 l 1
 11 14 l 1
 10 14 l 1
 9 14 l 1
 8 14 l 1
 7 14 l 1
 6 14 l 1
 5 14 l 1
 4 14 l 1
 3 14 l 1
 3 13 l 1
 3 12 l 1
 3 11 l 1
 4 11 l 1
 5 11 l 1
 6 11 l 1
 7 11 l 1
 8 11 l 1
 9 11 l 1
 10 11 l 1
 11 11 l 1
 11 10 l 1
 12 10 l 1
 12 9 l 1
 13 9 l 1
 13 8 l 1
 13 7 l 1
 13 6 l 1
 13 5 l 1
 13 4 l 1
 13 3 l 1
 13 2 l 1
 12 2 l 1
 12 1 l 1
 11 1 l 1
 11 0 l 1
 10 0 l 1
 9 0 l 1
 8 0 l 1
 7 0 l 1
 6 0 l 1
 5 0 l 1
 4 0 l 1
 3 0 l 1
 2 0 l 1
 2 1 l 1
 1 1 l 1
 1 2 l 1
 0 2 l 1
 0 3 l 1
 0 4 l 1
 0 5 l 1
 1 5 l 1
 2 5 l 1
 3 5 l 1
 3 4 l 1
 4 4 l 1
 4 3 l 1
 5 3 l 1
 6 3 l 1
 7 3 l 1
 8 3 l 1
 9 3 l 1
 9 4 l 1
 10 4 l 1
 10 5 l 1
 10 6 l 1
 10 7 l 1
 9 7 l 1
 9 8 l 1
 8 8 l 1
 7 8 l 1
 6 8 l 1
 5 8 l 1
 4 8 l 1
 3 8 l 1
 2 8 l 1
 1 8 l 1
 0 8 l 1
 0 9 l 1
 0 10 l 1
 0 11 l 1
 0 12 l 1
 0 13 l 1
 0 14 l 1
 0 15 l 1
 0 16 l 1
 0 17 l 1
EndSplineSet
EndChar

StartChar: six
Encoding: 54 54 21
Width: 16
Flags: HW
LayerCount: 2
Fore
SplineSet
2 17 m 1
 3 17 l 1
 4 17 l 1
 5 17 l 1
 6 17 l 1
 7 17 l 1
 8 17 l 1
 9 17 l 1
 10 17 l 1
 11 17 l 1
 11 16 l 1
 12 16 l 1
 12 15 l 1
 13 15 l 1
 13 14 l 1
 13 13 l 1
 13 12 l 1
 12 12 l 1
 11 12 l 1
 10 12 l 1
 10 13 l 1
 9 13 l 1
 9 14 l 1
 8 14 l 1
 7 14 l 1
 6 14 l 1
 5 14 l 1
 4 14 l 1
 4 13 l 1
 3 13 l 1
 3 12 l 1
 3 11 l 1
 4 11 l 1
 5 11 l 1
 6 11 l 1
 7 11 l 1
 8 11 l 1
 9 11 l 1
 10 11 l 1
 11 11 l 1
 11 10 l 1
 12 10 l 1
 12 9 l 1
 13 9 l 1
 13 8 l 1
 13 7 l 1
 13 6 l 1
 13 5 l 1
 13 4 l 1
 13 3 l 1
 13 2 l 1
 12 2 l 1
 12 1 l 1
 11 1 l 1
 11 0 l 1
 10 0 l 1
 9 0 l 1
 8 0 l 1
 7 0 l 1
 6 0 l 1
 5 0 l 1
 4 0 l 1
 3 0 l 1
 2 0 l 1
 2 1 l 1
 1 1 l 1
 1 2 l 1
 0 2 l 1
 0 3 l 1
 0 4 l 1
 0 5 l 1
 0 6 l 1
 0 7 l 1
 0 8 l 1
 0 9 l 1
 0 10 l 1
 0 11 l 1
 0 12 l 1
 0 13 l 1
 0 14 l 1
 0 15 l 1
 1 15 l 1
 1 16 l 1
 2 16 l 1
 2 17 l 1
3 8 m 1
 3 7 l 1
 3 6 l 1
 3 5 l 1
 3 4 l 1
 4 4 l 1
 4 3 l 1
 5 3 l 1
 6 3 l 1
 7 3 l 1
 8 3 l 1
 9 3 l 1
 9 4 l 1
 10 4 l 1
 10 5 l 1
 10 6 l 1
 10 7 l 1
 9 7 l 1
 9 8 l 1
 8 8 l 1
 7 8 l 1
 6 8 l 1
 5 8 l 1
 4 8 l 1
 3 8 l 1
EndSplineSet
EndChar

StartChar: seven
Encoding: 55 55 22
Width: 16
Flags: HW
LayerCount: 2
Fore
SplineSet
0 17 m 1
 1 17 l 1
 2 17 l 1
 3 17 l 1
 4 17 l 1
 5 17 l 1
 6 17 l 1
 7 17 l 1
 8 17 l 1
 9 17 l 1
 10 17 l 1
 11 17 l 1
 12 17 l 1
 13 17 l 1
 13 16 l 1
 13 15 l 1
 13 14 l 1
 13 13 l 1
 13 12 l 1
 13 11 l 1
 12 11 l 1
 12 10 l 1
 11 10 l 1
 11 9 l 1
 10 9 l 1
 10 8 l 1
 9 8 l 1
 9 7 l 1
 8 7 l 1
 8 6 l 1
 8 5 l 1
 8 4 l 1
 8 3 l 1
 8 2 l 1
 8 1 l 1
 8 0 l 1
 7 0 l 1
 6 0 l 1
 5 0 l 1
 5 1 l 1
 5 2 l 1
 5 3 l 1
 5 4 l 1
 5 5 l 1
 5 6 l 1
 5 7 l 1
 5 8 l 1
 6 8 l 1
 6 9 l 1
 7 9 l 1
 7 10 l 1
 8 10 l 1
 8 11 l 1
 9 11 l 1
 9 12 l 1
 10 12 l 1
 10 13 l 1
 10 14 l 1
 9 14 l 1
 8 14 l 1
 7 14 l 1
 6 14 l 1
 5 14 l 1
 4 14 l 1
 3 14 l 1
 2 14 l 1
 1 14 l 1
 0 14 l 1
 0 15 l 1
 0 16 l 1
 0 17 l 1
EndSplineSet
EndChar

StartChar: eight
Encoding: 56 56 23
Width: 16
Flags: HW
LayerCount: 2
Fore
SplineSet
2 17 m 1
 3 17 l 1
 4 17 l 1
 5 17 l 1
 6 17 l 1
 7 17 l 1
 8 17 l 1
 9 17 l 1
 10 17 l 1
 11 17 l 1
 11 16 l 1
 12 16 l 1
 12 15 l 1
 13 15 l 1
 13 14 l 1
 13 13 l 1
 13 12 l 1
 13 11 l 1
 13 10 l 1
 12 10 l 1
 12 9 l 1
 11 9 l 1
 11 8 l 1
 12 8 l 1
 12 7 l 1
 13 7 l 1
 13 6 l 1
 13 5 l 1
 13 4 l 1
 13 3 l 1
 13 2 l 1
 12 2 l 1
 12 1 l 1
 11 1 l 1
 11 0 l 1
 10 0 l 1
 9 0 l 1
 8 0 l 1
 7 0 l 1
 6 0 l 1
 5 0 l 1
 4 0 l 1
 3 0 l 1
 2 0 l 1
 2 1 l 1
 1 1 l 1
 1 2 l 1
 0 2 l 1
 0 3 l 1
 0 4 l 1
 0 5 l 1
 0 6 l 1
 0 7 l 1
 1 7 l 1
 1 8 l 1
 2 8 l 1
 2 9 l 1
 1 9 l 1
 1 10 l 1
 0 10 l 1
 0 11 l 1
 0 12 l 1
 0 13 l 1
 0 14 l 1
 0 15 l 1
 1 15 l 1
 1 16 l 1
 2 16 l 1
 2 17 l 1
4 14 m 1
 4 13 l 1
 3 13 l 1
 3 12 l 1
 3 11 l 1
 4 11 l 1
 4 10 l 1
 5 10 l 1
 6 10 l 1
 7 10 l 1
 8 10 l 1
 9 10 l 1
 9 11 l 1
 10 11 l 1
 10 12 l 1
 10 13 l 1
 9 13 l 1
 9 14 l 1
 8 14 l 1
 7 14 l 1
 6 14 l 1
 5 14 l 1
 4 14 l 1
4 7 m 1
 4 6 l 1
 3 6 l 1
 3 5 l 1
 3 4 l 1
 4 4 l 1
 4 3 l 1
 5 3 l 1
 6 3 l 1
 7 3 l 1
 8 3 l 1
 9 3 l 1
 9 4 l 1
 10 4 l 1
 10 5 l 1
 10 6 l 1
 9 6 l 1
 9 7 l 1
 8 7 l 1
 7 7 l 1
 6 7 l 1
 5 7 l 1
 4 7 l 1
EndSplineSet
EndChar

StartChar: nine
Encoding: 57 57 24
Width: 16
Flags: HW
LayerCount: 2
Fore
SplineSet
2 17 m 1
 3 17 l 1
 4 17 l 1
 5 17 l 1
 6 17 l 1
 7 17 l 1
 8 17 l 1
 9 17 l 1
 10 17 l 1
 11 17 l 1
 11 16 l 1
 12 16 l 1
 12 15 l 1
 13 15 l 1
 13 14 l 1
 13 13 l 1
 13 12 l 1
 13 11 l 1
 13 10 l 1
 13 9 l 1
 13 8 l 1
 13 7 l 1
 13 6 l 1
 13 5 l 1
 13 4 l 1
 13 3 l 1
 13 2 l 1
 12 2 l 1
 12 1 l 1
 11 1 l 1
 11 0 l 1
 10 0 l 1
 9 0 l 1
 8 0 l 1
 7 0 l 1
 6 0 l 1
 5 0 l 1
 4 0 l 1
 3 0 l 1
 2 0 l 1
 2 1 l 1
 1 1 l 1
 1 2 l 1
 0 2 l 1
 0 3 l 1
 0 4 l 1
 0 5 l 1
 1 5 l 1
 2 5 l 1
 3 5 l 1
 3 4 l 1
 4 4 l 1
 4 3 l 1
 5 3 l 1
 6 3 l 1
 7 3 l 1
 8 3 l 1
 9 3 l 1
 9 4 l 1
 10 4 l 1
 10 5 l 1
 10 6 l 1
 9 6 l 1
 9 7 l 1
 8 7 l 1
 7 7 l 1
 6 7 l 1
 5 7 l 1
 4 7 l 1
 3 7 l 1
 2 7 l 1
 2 8 l 1
 1 8 l 1
 1 9 l 1
 0 9 l 1
 0 10 l 1
 0 11 l 1
 0 12 l 1
 0 13 l 1
 0 14 l 1
 0 15 l 1
 1 15 l 1
 1 16 l 1
 2 16 l 1
 2 17 l 1
4 14 m 1
 4 13 l 1
 3 13 l 1
 3 12 l 1
 3 11 l 1
 4 11 l 1
 4 10 l 1
 5 10 l 1
 6 10 l 1
 7 10 l 1
 8 10 l 1
 9 10 l 1
 9 11 l 1
 10 11 l 1
 10 12 l 1
 10 13 l 1
 9 13 l 1
 9 14 l 1
 8 14 l 1
 7 14 l 1
 6 14 l 1
 5 14 l 1
 4 14 l 1
EndSplineSet
EndChar

StartChar: colon
Encoding: 58 58 25
Width: 6
Flags: HW
LayerCount: 2
Fore
SplineSet
0 14 m 1
 1 14 l 1
 2 14 l 1
 3 14 l 1
 3 13 l 1
 3 12 l 1
 3 11 l 1
 2 11 l 1
 1 11 l 1
 0 11 l 1
 0 12 l 1
 0 13 l 1
 0 14 l 1
0 6 m 1
 1 6 l 1
 2 6 l 1
 3 6 l 1
 3 5 l 1
 3 4 l 1
 3 3 l 1
 2 3 l 1
 1 3 l 1
 0 3 l 1
 0 4 l 1
 0 5 l 1
 0 6 l 1
EndSplineSet
EndChar

StartChar: semicolon
Encoding: 59 59 26
Width: 6
Flags: HW
LayerCount: 2
Fore
SplineSet
0 14 m 1
 1 14 l 1
 2 14 l 1
 3 14 l 1
 3 13 l 1
 3 12 l 1
 3 11 l 1
 2 11 l 1
 1 11 l 1
 0 11 l 1
 0 12 l 1
 0 13 l 1
 0 14 l 1
0 6 m 1
 1 6 l 1
 2 6 l 1
 3 6 l 1
 3 5 l 1
 3 4 l 1
 3 3 l 1
 3 2 l 1
 3 1 l 1
 3 0 l 1
 2 0 l 1
 1 0 l 1
 0 0 l 1
 0 1 l 1
 0 2 l 1
 0 3 l 1
 0 4 l 1
 0 5 l 1
 0 6 l 1
EndSplineSet
EndChar

StartChar: less
Encoding: 60 60 27
Width: 12
Flags: HW
LayerCount: 2
Fore
SplineSet
7 17 m 1
 8 17 l 1
 9 17 l 1
 9 16 l 1
 9 15 l 1
 9 14 l 1
 8 14 l 1
 8 13 l 1
 7 13 l 1
 7 12 l 1
 6 12 l 1
 6 11 l 1
 5 11 l 1
 5 10 l 1
 4 10 l 1
 4 9 l 1
 3 9 l 1
 3 8 l 1
 4 8 l 1
 4 7 l 1
 5 7 l 1
 5 6 l 1
 6 6 l 1
 6 5 l 1
 7 5 l 1
 7 4 l 1
 8 4 l 1
 8 3 l 1
 9 3 l 1
 9 2 l 1
 9 1 l 1
 9 0 l 1
 8 0 l 1
 7 0 l 1
 7 1 l 1
 6 1 l 1
 6 2 l 1
 5 2 l 1
 5 3 l 1
 4 3 l 1
 4 4 l 1
 3 4 l 1
 3 5 l 1
 2 5 l 1
 2 6 l 1
 1 6 l 1
 1 7 l 1
 0 7 l 1
 0 8 l 1
 0 9 l 1
 0 10 l 1
 1 10 l 1
 1 11 l 1
 2 11 l 1
 2 12 l 1
 3 12 l 1
 3 13 l 1
 4 13 l 1
 4 14 l 1
 5 14 l 1
 5 15 l 1
 6 15 l 1
 6 16 l 1
 7 16 l 1
 7 17 l 1
EndSplineSet
EndChar

StartChar: equal
Encoding: 61 61 28
Width: 16
Flags: HW
LayerCount: 2
Fore
SplineSet
0 13 m 1
 1 13 l 1
 2 13 l 1
 3 13 l 1
 4 13 l 1
 5 13 l 1
 6 13 l 1
 7 13 l 1
 8 13 l 1
 9 13 l 1
 10 13 l 1
 11 13 l 1
 12 13 l 1
 13 13 l 1
 13 12 l 1
 13 11 l 1
 13 10 l 1
 12 10 l 1
 11 10 l 1
 10 10 l 1
 9 10 l 1
 8 10 l 1
 7 10 l 1
 6 10 l 1
 5 10 l 1
 4 10 l 1
 3 10 l 1
 2 10 l 1
 1 10 l 1
 0 10 l 1
 0 11 l 1
 0 12 l 1
 0 13 l 1
0 7 m 1
 1 7 l 1
 2 7 l 1
 3 7 l 1
 4 7 l 1
 5 7 l 1
 6 7 l 1
 7 7 l 1
 8 7 l 1
 9 7 l 1
 10 7 l 1
 11 7 l 1
 12 7 l 1
 13 7 l 1
 13 6 l 1
 13 5 l 1
 13 4 l 1
 12 4 l 1
 11 4 l 1
 10 4 l 1
 9 4 l 1
 8 4 l 1
 7 4 l 1
 6 4 l 1
 5 4 l 1
 4 4 l 1
 3 4 l 1
 2 4 l 1
 1 4 l 1
 0 4 l 1
 0 5 l 1
 0 6 l 1
 0 7 l 1
EndSplineSet
EndChar

StartChar: greater
Encoding: 62 62 29
Width: 12
Flags: HW
LayerCount: 2
Fore
SplineSet
0 17 m 1
 1 17 l 1
 2 17 l 1
 2 16 l 1
 3 16 l 1
 3 15 l 1
 4 15 l 1
 4 14 l 1
 5 14 l 1
 5 13 l 1
 6 13 l 1
 6 12 l 1
 7 12 l 1
 7 11 l 1
 8 11 l 1
 8 10 l 1
 9 10 l 1
 9 9 l 1
 9 8 l 1
 9 7 l 1
 8 7 l 1
 8 6 l 1
 7 6 l 1
 7 5 l 1
 6 5 l 1
 6 4 l 1
 5 4 l 1
 5 3 l 1
 4 3 l 1
 4 2 l 1
 3 2 l 1
 3 1 l 1
 2 1 l 1
 2 0 l 1
 1 0 l 1
 0 0 l 1
 0 1 l 1
 0 2 l 1
 0 3 l 1
 1 3 l 1
 1 4 l 1
 2 4 l 1
 2 5 l 1
 3 5 l 1
 3 6 l 1
 4 6 l 1
 4 7 l 1
 5 7 l 1
 5 8 l 1
 6 8 l 1
 6 9 l 1
 5 9 l 1
 5 10 l 1
 4 10 l 1
 4 11 l 1
 3 11 l 1
 3 12 l 1
 2 12 l 1
 2 13 l 1
 1 13 l 1
 1 14 l 1
 0 14 l 1
 0 15 l 1
 0 16 l 1
 0 17 l 1
EndSplineSet
EndChar

StartChar: question
Encoding: 63 63 30
Width: 16
Flags: HW
LayerCount: 2
Fore
SplineSet
2 17 m 1
 3 17 l 1
 4 17 l 1
 5 17 l 1
 6 17 l 1
 7 17 l 1
 8 17 l 1
 9 17 l 1
 10 17 l 1
 11 17 l 1
 11 16 l 1
 12 16 l 1
 12 15 l 1
 13 15 l 1
 13 14 l 1
 13 13 l 1
 13 12 l 1
 13 11 l 1
 13 10 l 1
 13 9 l 1
 12 9 l 1
 12 8 l 1
 11 8 l 1
 11 7 l 1
 10 7 l 1
 10 6 l 1
 9 6 l 1
 9 5 l 1
 8 5 l 1
 8 4 l 1
 7 4 l 1
 6 4 l 1
 5 4 l 1
 5 5 l 1
 5 6 l 1
 5 7 l 1
 6 7 l 1
 6 8 l 1
 7 8 l 1
 7 9 l 1
 8 9 l 1
 8 10 l 1
 9 10 l 1
 9 11 l 1
 10 11 l 1
 10 12 l 1
 10 13 l 1
 9 13 l 1
 9 14 l 1
 8 14 l 1
 7 14 l 1
 6 14 l 1
 5 14 l 1
 4 14 l 1
 4 13 l 1
 3 13 l 1
 3 12 l 1
 2 12 l 1
 1 12 l 1
 0 12 l 1
 0 13 l 1
 0 14 l 1
 0 15 l 1
 1 15 l 1
 1 16 l 1
 2 16 l 1
 2 17 l 1
5 3 m 1
 6 3 l 1
 7 3 l 1
 8 3 l 1
 8 2 l 1
 8 1 l 1
 8 0 l 1
 7 0 l 1
 6 0 l 1
 5 0 l 1
 5 1 l 1
 5 2 l 1
 5 3 l 1
EndSplineSet
EndChar

StartChar: at
Encoding: 64 64 31
Width: 16
Flags: HW
LayerCount: 2
Fore
SplineSet
0 13 m 1
 1 13 l 1
 2 13 l 1
 3 13 l 1
 4 13 l 1
 5 13 l 1
 6 13 l 1
 7 13 l 1
 8 13 l 1
 9 13 l 1
 10 13 l 1
 11 13 l 1
 12 13 l 1
 13 13 l 1
 13 12 l 1
 13 11 l 1
 13 10 l 1
 13 9 l 1
 13 8 l 1
 13 7 l 1
 13 6 l 1
 13 5 l 1
 13 4 l 1
 13 3 l 1
 12 3 l 1
 11 3 l 1
 10 3 l 1
 9 3 l 1
 8 3 l 1
 7 3 l 1
 6 3 l 1
 5 3 l 1
 4 3 l 1
 4 4 l 1
 3 4 l 1
 3 5 l 1
 3 6 l 1
 3 7 l 1
 3 8 l 1
 3 9 l 1
 4 9 l 1
 4 10 l 1
 5 10 l 1
 6 10 l 1
 7 10 l 1
 8 10 l 1
 9 10 l 1
 10 10 l 1
 10 9 l 1
 10 8 l 1
 10 7 l 1
 10 6 l 1
 10 5 l 1
 11 5 l 1
 11 6 l 1
 11 7 l 1
 11 8 l 1
 11 9 l 1
 11 10 l 1
 11 11 l 1
 10 11 l 1
 9 11 l 1
 8 11 l 1
 7 11 l 1
 6 11 l 1
 5 11 l 1
 4 11 l 1
 3 11 l 1
 2 11 l 1
 2 10 l 1
 2 9 l 1
 2 8 l 1
 2 7 l 1
 2 6 l 1
 2 5 l 1
 2 4 l 1
 2 3 l 1
 2 2 l 1
 3 2 l 1
 4 2 l 1
 5 2 l 1
 6 2 l 1
 7 2 l 1
 8 2 l 1
 9 2 l 1
 10 2 l 1
 11 2 l 1
 12 2 l 1
 13 2 l 1
 13 1 l 1
 13 0 l 1
 12 0 l 1
 11 0 l 1
 10 0 l 1
 9 0 l 1
 8 0 l 1
 7 0 l 1
 6 0 l 1
 5 0 l 1
 4 0 l 1
 3 0 l 1
 2 0 l 1
 1 0 l 1
 0 0 l 1
 0 1 l 1
 0 2 l 1
 0 3 l 1
 0 4 l 1
 0 5 l 1
 0 6 l 1
 0 7 l 1
 0 8 l 1
 0 9 l 1
 0 10 l 1
 0 11 l 1
 0 12 l 1
 0 13 l 1
5 8 m 1
 5 7 l 1
 5 6 l 1
 5 5 l 1
 6 5 l 1
 7 5 l 1
 8 5 l 1
 8 6 l 1
 8 7 l 1
 8 8 l 1
 7 8 l 1
 6 8 l 1
 5 8 l 1
EndSplineSet
EndChar

StartChar: A
Encoding: 65 65 32
Width: 16
Flags: HW
LayerCount: 2
Fore
SplineSet
2 17 m 1
 3 17 l 1
 4 17 l 1
 5 17 l 1
 6 17 l 1
 7 17 l 1
 8 17 l 1
 9 17 l 1
 10 17 l 1
 11 17 l 1
 11 16 l 1
 12 16 l 1
 12 15 l 1
 13 15 l 1
 13 14 l 1
 13 13 l 1
 13 12 l 1
 13 11 l 1
 13 10 l 1
 13 9 l 1
 13 8 l 1
 13 7 l 1
 13 6 l 1
 13 5 l 1
 13 4 l 1
 13 3 l 1
 13 2 l 1
 13 1 l 1
 13 0 l 1
 12 0 l 1
 11 0 l 1
 10 0 l 1
 10 1 l 1
 10 2 l 1
 10 3 l 1
 10 4 l 1
 10 5 l 1
 10 6 l 1
 10 7 l 1
 9 7 l 1
 8 7 l 1
 7 7 l 1
 6 7 l 1
 5 7 l 1
 4 7 l 1
 3 7 l 1
 3 6 l 1
 3 5 l 1
 3 4 l 1
 3 3 l 1
 3 2 l 1
 3 1 l 1
 3 0 l 1
 2 0 l 1
 1 0 l 1
 0 0 l 1
 0 1 l 1
 0 2 l 1
 0 3 l 1
 0 4 l 1
 0 5 l 1
 0 6 l 1
 0 7 l 1
 0 8 l 1
 0 9 l 1
 0 10 l 1
 0 11 l 1
 0 12 l 1
 0 13 l 1
 0 14 l 1
 0 15 l 1
 1 15 l 1
 1 16 l 1
 2 16 l 1
 2 17 l 1
4 14 m 1
 4 13 l 1
 3 13 l 1
 3 12 l 1
 3 11 l 1
 3 10 l 1
 4 10 l 1
 5 10 l 1
 6 10 l 1
 7 10 l 1
 8 10 l 1
 9 10 l 1
 10 10 l 1
 10 11 l 1
 10 12 l 1
 10 13 l 1
 9 13 l 1
 9 14 l 1
 8 14 l 1
 7 14 l 1
 6 14 l 1
 5 14 l 1
 4 14 l 1
EndSplineSet
EndChar

StartChar: B
Encoding: 66 66 33
Width: 16
Flags: HW
LayerCount: 2
Fore
SplineSet
0 17 m 5
 1 17 l 5
 2 17 l 5
 3 17 l 5
 4 17 l 5
 5 17 l 5
 6 17 l 5
 7 17 l 5
 8 17 l 5
 9 17 l 5
 10 17 l 5
 11 17 l 5
 11 16 l 5
 12 16 l 5
 12 15 l 5
 13 15 l 5
 13 14 l 5
 13 13 l 5
 13 12 l 5
 13 11 l 5
 13 10 l 5
 12 10 l 5
 12 9 l 5
 11 9 l 5
 11 8 l 5
 12 8 l 5
 12 7 l 5
 13 7 l 5
 13 6 l 5
 13 5 l 5
 13 4 l 5
 13 3 l 5
 13 2 l 5
 12 2 l 5
 12 1 l 5
 11 1 l 5
 11 0 l 5
 10 0 l 5
 9 0 l 5
 8 0 l 5
 7 0 l 5
 6 0 l 5
 5 0 l 5
 4 0 l 5
 3 0 l 5
 2 0 l 5
 1 0 l 5
 0 0 l 5
 0 1 l 5
 0 2 l 5
 0 3 l 5
 0 4 l 5
 0 5 l 5
 0 6 l 5
 0 7 l 5
 0 8 l 5
 0 9 l 5
 0 10 l 5
 0 11 l 5
 0 12 l 5
 0 13 l 5
 0 14 l 5
 0 15 l 5
 0 16 l 5
 0 17 l 5
3 14 m 5
 3 13 l 5
 3 12 l 5
 3 11 l 5
 3 10 l 5
 4 10 l 5
 5 10 l 5
 6 10 l 5
 7 10 l 5
 8 10 l 5
 9 10 l 5
 9 11 l 5
 10 11 l 5
 10 12 l 5
 10 13 l 5
 9 13 l 5
 9 14 l 5
 8 14 l 5
 7 14 l 5
 6 14 l 5
 5 14 l 5
 4 14 l 5
 3 14 l 5
3 7 m 5
 3 6 l 5
 3 5 l 5
 3 4 l 5
 3 3 l 5
 4 3 l 5
 5 3 l 5
 6 3 l 5
 7 3 l 5
 8 3 l 5
 9 3 l 5
 9 4 l 5
 10 4 l 5
 10 5 l 5
 10 6 l 5
 9 6 l 5
 9 7 l 5
 8 7 l 5
 7 7 l 5
 6 7 l 5
 5 7 l 5
 4 7 l 5
 3 7 l 5
EndSplineSet
EndChar

StartChar: C
Encoding: 67 67 34
Width: 16
Flags: HW
LayerCount: 2
Fore
SplineSet
2 17 m 1
 3 17 l 1
 4 17 l 1
 5 17 l 1
 6 17 l 1
 7 17 l 1
 8 17 l 1
 9 17 l 1
 10 17 l 1
 11 17 l 1
 12 17 l 1
 13 17 l 1
 13 16 l 1
 13 15 l 1
 13 14 l 1
 12 14 l 1
 11 14 l 1
 10 14 l 1
 9 14 l 1
 8 14 l 1
 7 14 l 1
 6 14 l 1
 5 14 l 1
 4 14 l 1
 4 13 l 1
 3 13 l 1
 3 12 l 1
 3 11 l 1
 3 10 l 1
 3 9 l 1
 3 8 l 1
 3 7 l 1
 3 6 l 1
 3 5 l 1
 3 4 l 1
 4 4 l 1
 4 3 l 1
 5 3 l 1
 6 3 l 1
 7 3 l 1
 8 3 l 1
 9 3 l 1
 10 3 l 1
 11 3 l 1
 12 3 l 1
 13 3 l 1
 13 2 l 1
 13 1 l 1
 13 0 l 1
 12 0 l 1
 11 0 l 1
 10 0 l 1
 9 0 l 1
 8 0 l 1
 7 0 l 1
 6 0 l 1
 5 0 l 1
 4 0 l 1
 3 0 l 1
 2 0 l 1
 2 1 l 1
 1 1 l 1
 1 2 l 1
 0 2 l 1
 0 3 l 1
 0 4 l 1
 0 5 l 1
 0 6 l 1
 0 7 l 1
 0 8 l 1
 0 9 l 1
 0 10 l 1
 0 11 l 1
 0 12 l 1
 0 13 l 1
 0 14 l 1
 0 15 l 1
 1 15 l 1
 1 16 l 1
 2 16 l 1
 2 17 l 1
EndSplineSet
EndChar

StartChar: D
Encoding: 68 68 35
Width: 16
Flags: HW
LayerCount: 2
Fore
SplineSet
0 17 m 1
 1 17 l 1
 2 17 l 1
 3 17 l 1
 4 17 l 1
 5 17 l 1
 6 17 l 1
 7 17 l 1
 8 17 l 1
 9 17 l 1
 10 17 l 1
 11 17 l 1
 11 16 l 1
 12 16 l 1
 12 15 l 1
 13 15 l 1
 13 14 l 1
 13 13 l 1
 13 12 l 1
 13 11 l 1
 13 10 l 1
 13 9 l 1
 13 8 l 1
 13 7 l 1
 13 6 l 1
 13 5 l 1
 13 4 l 1
 13 3 l 1
 13 2 l 1
 12 2 l 1
 12 1 l 1
 11 1 l 1
 11 0 l 1
 10 0 l 1
 9 0 l 1
 8 0 l 1
 7 0 l 1
 6 0 l 1
 5 0 l 1
 4 0 l 1
 3 0 l 1
 2 0 l 1
 1 0 l 1
 0 0 l 1
 0 1 l 1
 0 2 l 1
 0 3 l 1
 0 4 l 1
 0 5 l 1
 0 6 l 1
 0 7 l 1
 0 8 l 1
 0 9 l 1
 0 10 l 1
 0 11 l 1
 0 12 l 1
 0 13 l 1
 0 14 l 1
 0 15 l 1
 0 16 l 1
 0 17 l 1
3 14 m 1
 3 13 l 1
 3 12 l 1
 3 11 l 1
 3 10 l 1
 3 9 l 1
 3 8 l 1
 3 7 l 1
 3 6 l 1
 3 5 l 1
 3 4 l 1
 3 3 l 1
 4 3 l 1
 5 3 l 1
 6 3 l 1
 7 3 l 1
 8 3 l 1
 9 3 l 1
 9 4 l 1
 10 4 l 1
 10 5 l 1
 10 6 l 1
 10 7 l 1
 10 8 l 1
 10 9 l 1
 10 10 l 1
 10 11 l 1
 10 12 l 1
 10 13 l 1
 9 13 l 1
 9 14 l 1
 8 14 l 1
 7 14 l 1
 6 14 l 1
 5 14 l 1
 4 14 l 1
 3 14 l 1
EndSplineSet
EndChar

StartChar: E
Encoding: 69 69 36
Width: 16
Flags: HW
LayerCount: 2
Fore
SplineSet
0 17 m 1
 1 17 l 1
 2 17 l 1
 3 17 l 1
 4 17 l 1
 5 17 l 1
 6 17 l 1
 7 17 l 1
 8 17 l 1
 9 17 l 1
 10 17 l 1
 11 17 l 1
 12 17 l 1
 13 17 l 1
 13 16 l 1
 13 15 l 1
 13 14 l 1
 12 14 l 1
 11 14 l 1
 10 14 l 1
 9 14 l 1
 8 14 l 1
 7 14 l 1
 6 14 l 1
 5 14 l 1
 4 14 l 1
 3 14 l 1
 3 13 l 1
 3 12 l 1
 3 11 l 1
 3 10 l 1
 4 10 l 1
 5 10 l 1
 6 10 l 1
 7 10 l 1
 8 10 l 1
 9 10 l 1
 10 10 l 1
 10 9 l 1
 10 8 l 1
 10 7 l 1
 9 7 l 1
 8 7 l 1
 7 7 l 1
 6 7 l 1
 5 7 l 1
 4 7 l 1
 3 7 l 1
 3 6 l 1
 3 5 l 1
 3 4 l 1
 3 3 l 1
 4 3 l 1
 5 3 l 1
 6 3 l 1
 7 3 l 1
 8 3 l 1
 9 3 l 1
 10 3 l 1
 11 3 l 1
 12 3 l 1
 13 3 l 1
 13 2 l 1
 13 1 l 1
 13 0 l 1
 12 0 l 1
 11 0 l 1
 10 0 l 1
 9 0 l 1
 8 0 l 1
 7 0 l 1
 6 0 l 1
 5 0 l 1
 4 0 l 1
 3 0 l 1
 2 0 l 1
 1 0 l 1
 0 0 l 1
 0 1 l 1
 0 2 l 1
 0 3 l 1
 0 4 l 1
 0 5 l 1
 0 6 l 1
 0 7 l 1
 0 8 l 1
 0 9 l 1
 0 10 l 1
 0 11 l 1
 0 12 l 1
 0 13 l 1
 0 14 l 1
 0 15 l 1
 0 16 l 1
 0 17 l 1
EndSplineSet
EndChar

StartChar: F
Encoding: 70 70 37
Width: 16
Flags: HW
LayerCount: 2
Fore
SplineSet
0 17 m 1
 1 17 l 1
 2 17 l 1
 3 17 l 1
 4 17 l 1
 5 17 l 1
 6 17 l 1
 7 17 l 1
 8 17 l 1
 9 17 l 1
 10 17 l 1
 11 17 l 1
 12 17 l 1
 13 17 l 1
 13 16 l 1
 13 15 l 1
 13 14 l 1
 12 14 l 1
 11 14 l 1
 10 14 l 1
 9 14 l 1
 8 14 l 1
 7 14 l 1
 6 14 l 1
 5 14 l 1
 4 14 l 1
 3 14 l 1
 3 13 l 1
 3 12 l 1
 3 11 l 1
 3 10 l 1
 4 10 l 1
 5 10 l 1
 6 10 l 1
 7 10 l 1
 8 10 l 1
 9 10 l 1
 10 10 l 1
 10 9 l 1
 10 8 l 1
 10 7 l 1
 9 7 l 1
 8 7 l 1
 7 7 l 1
 6 7 l 1
 5 7 l 1
 4 7 l 1
 3 7 l 1
 3 6 l 1
 3 5 l 1
 3 4 l 1
 3 3 l 1
 3 2 l 1
 3 1 l 1
 3 0 l 1
 2 0 l 1
 1 0 l 1
 0 0 l 1
 0 1 l 1
 0 2 l 1
 0 3 l 1
 0 4 l 1
 0 5 l 1
 0 6 l 1
 0 7 l 1
 0 8 l 1
 0 9 l 1
 0 10 l 1
 0 11 l 1
 0 12 l 1
 0 13 l 1
 0 14 l 1
 0 15 l 1
 0 16 l 1
 0 17 l 1
EndSplineSet
EndChar

StartChar: G
Encoding: 71 71 38
Width: 16
Flags: HW
LayerCount: 2
Fore
SplineSet
2 17 m 1
 3 17 l 1
 4 17 l 1
 5 17 l 1
 6 17 l 1
 7 17 l 1
 8 17 l 1
 9 17 l 1
 10 17 l 1
 11 17 l 1
 12 17 l 1
 13 17 l 1
 13 16 l 1
 13 15 l 1
 13 14 l 1
 12 14 l 1
 11 14 l 1
 10 14 l 1
 9 14 l 1
 8 14 l 1
 7 14 l 1
 6 14 l 1
 5 14 l 1
 4 14 l 1
 4 13 l 1
 3 13 l 1
 3 12 l 1
 3 11 l 1
 3 10 l 1
 3 9 l 1
 3 8 l 1
 3 7 l 1
 3 6 l 1
 3 5 l 1
 3 4 l 1
 4 4 l 1
 4 3 l 1
 5 3 l 1
 6 3 l 1
 7 3 l 1
 8 3 l 1
 9 3 l 1
 9 4 l 1
 10 4 l 1
 10 5 l 1
 10 6 l 1
 10 7 l 1
 9 7 l 1
 8 7 l 1
 7 7 l 1
 6 7 l 1
 6 8 l 1
 6 9 l 1
 6 10 l 1
 7 10 l 1
 8 10 l 1
 9 10 l 1
 10 10 l 1
 11 10 l 1
 12 10 l 1
 13 10 l 1
 13 9 l 1
 13 8 l 1
 13 7 l 1
 13 6 l 1
 13 5 l 1
 13 4 l 1
 13 3 l 1
 13 2 l 1
 12 2 l 1
 12 1 l 1
 11 1 l 1
 11 0 l 1
 10 0 l 1
 9 0 l 1
 8 0 l 1
 7 0 l 1
 6 0 l 1
 5 0 l 1
 4 0 l 1
 3 0 l 1
 2 0 l 1
 2 1 l 1
 1 1 l 1
 1 2 l 1
 0 2 l 1
 0 3 l 1
 0 4 l 1
 0 5 l 1
 0 6 l 1
 0 7 l 1
 0 8 l 1
 0 9 l 1
 0 10 l 1
 0 11 l 1
 0 12 l 1
 0 13 l 1
 0 14 l 1
 0 15 l 1
 1 15 l 1
 1 16 l 1
 2 16 l 1
 2 17 l 1
EndSplineSet
EndChar

StartChar: H
Encoding: 72 72 39
Width: 16
Flags: HW
LayerCount: 2
Fore
SplineSet
0 17 m 1
 1 17 l 1
 2 17 l 1
 3 17 l 1
 3 16 l 1
 3 15 l 1
 3 14 l 1
 3 13 l 1
 3 12 l 1
 3 11 l 1
 3 10 l 1
 4 10 l 1
 5 10 l 1
 6 10 l 1
 7 10 l 1
 8 10 l 1
 9 10 l 1
 10 10 l 1
 10 11 l 1
 10 12 l 1
 10 13 l 1
 10 14 l 1
 10 15 l 1
 10 16 l 1
 10 17 l 1
 11 17 l 1
 12 17 l 1
 13 17 l 1
 13 16 l 1
 13 15 l 1
 13 14 l 1
 13 13 l 1
 13 12 l 1
 13 11 l 1
 13 10 l 1
 13 9 l 1
 13 8 l 1
 13 7 l 1
 13 6 l 1
 13 5 l 1
 13 4 l 1
 13 3 l 1
 13 2 l 1
 13 1 l 1
 13 0 l 1
 12 0 l 1
 11 0 l 1
 10 0 l 1
 10 1 l 1
 10 2 l 1
 10 3 l 1
 10 4 l 1
 10 5 l 1
 10 6 l 1
 10 7 l 1
 9 7 l 1
 8 7 l 1
 7 7 l 1
 6 7 l 1
 5 7 l 1
 4 7 l 1
 3 7 l 1
 3 6 l 1
 3 5 l 1
 3 4 l 1
 3 3 l 1
 3 2 l 1
 3 1 l 1
 3 0 l 1
 2 0 l 1
 1 0 l 1
 0 0 l 1
 0 1 l 1
 0 2 l 1
 0 3 l 1
 0 4 l 1
 0 5 l 1
 0 6 l 1
 0 7 l 1
 0 8 l 1
 0 9 l 1
 0 10 l 1
 0 11 l 1
 0 12 l 1
 0 13 l 1
 0 14 l 1
 0 15 l 1
 0 16 l 1
 0 17 l 1
EndSplineSet
EndChar

StartChar: I
Encoding: 73 73 40
Width: 16
Flags: HW
LayerCount: 2
Fore
SplineSet
0 17 m 1
 1 17 l 1
 2 17 l 1
 3 17 l 1
 4 17 l 1
 5 17 l 1
 6 17 l 1
 7 17 l 1
 8 17 l 1
 9 17 l 1
 10 17 l 1
 11 17 l 1
 12 17 l 1
 13 17 l 1
 13 16 l 1
 13 15 l 1
 13 14 l 1
 12 14 l 1
 11 14 l 1
 10 14 l 1
 9 14 l 1
 8 14 l 1
 8 13 l 1
 8 12 l 1
 8 11 l 1
 8 10 l 1
 8 9 l 1
 8 8 l 1
 8 7 l 1
 8 6 l 1
 8 5 l 1
 8 4 l 1
 8 3 l 1
 9 3 l 1
 10 3 l 1
 11 3 l 1
 12 3 l 1
 13 3 l 1
 13 2 l 1
 13 1 l 1
 13 0 l 1
 12 0 l 1
 11 0 l 1
 10 0 l 1
 9 0 l 1
 8 0 l 1
 7 0 l 1
 6 0 l 1
 5 0 l 1
 4 0 l 1
 3 0 l 1
 2 0 l 1
 1 0 l 1
 0 0 l 1
 0 1 l 1
 0 2 l 1
 0 3 l 1
 1 3 l 1
 2 3 l 1
 3 3 l 1
 4 3 l 1
 5 3 l 1
 5 4 l 1
 5 5 l 1
 5 6 l 1
 5 7 l 1
 5 8 l 1
 5 9 l 1
 5 10 l 1
 5 11 l 1
 5 12 l 1
 5 13 l 1
 5 14 l 1
 4 14 l 1
 3 14 l 1
 2 14 l 1
 1 14 l 1
 0 14 l 1
 0 15 l 1
 0 16 l 1
 0 17 l 1
EndSplineSet
EndChar

StartChar: J
Encoding: 74 74 41
Width: 16
Flags: HW
LayerCount: 2
Fore
SplineSet
10 17 m 1
 11 17 l 1
 12 17 l 1
 13 17 l 1
 13 16 l 1
 13 15 l 1
 13 14 l 1
 13 13 l 1
 13 12 l 1
 13 11 l 1
 13 10 l 1
 13 9 l 1
 13 8 l 1
 13 7 l 1
 13 6 l 1
 13 5 l 1
 13 4 l 1
 13 3 l 1
 13 2 l 1
 12 2 l 1
 12 1 l 1
 11 1 l 1
 11 0 l 1
 10 0 l 1
 9 0 l 1
 8 0 l 1
 7 0 l 1
 6 0 l 1
 5 0 l 1
 4 0 l 1
 3 0 l 1
 2 0 l 1
 2 1 l 1
 1 1 l 1
 1 2 l 1
 0 2 l 1
 0 3 l 1
 0 4 l 1
 0 5 l 1
 0 6 l 1
 1 6 l 1
 2 6 l 1
 3 6 l 1
 3 5 l 1
 3 4 l 1
 4 4 l 1
 4 3 l 1
 5 3 l 1
 6 3 l 1
 7 3 l 1
 8 3 l 1
 9 3 l 1
 9 4 l 1
 10 4 l 1
 10 5 l 1
 10 6 l 1
 10 7 l 1
 10 8 l 1
 10 9 l 1
 10 10 l 1
 10 11 l 1
 10 12 l 1
 10 13 l 1
 10 14 l 1
 10 15 l 1
 10 16 l 1
 10 17 l 1
EndSplineSet
EndChar

StartChar: K
Encoding: 75 75 42
Width: 16
Flags: HW
LayerCount: 2
Fore
SplineSet
0 17 m 1
 1 17 l 1
 2 17 l 1
 3 17 l 1
 3 16 l 1
 3 15 l 1
 3 14 l 1
 3 13 l 1
 3 12 l 1
 3 11 l 1
 3 10 l 1
 4 10 l 1
 5 10 l 1
 5 11 l 1
 6 11 l 1
 6 12 l 1
 7 12 l 1
 7 13 l 1
 8 13 l 1
 8 14 l 1
 9 14 l 1
 9 15 l 1
 10 15 l 1
 10 16 l 1
 11 16 l 1
 11 17 l 1
 12 17 l 1
 13 17 l 1
 13 16 l 1
 13 15 l 1
 13 14 l 1
 12 14 l 1
 12 13 l 1
 11 13 l 1
 11 12 l 1
 10 12 l 1
 10 11 l 1
 9 11 l 1
 9 10 l 1
 8 10 l 1
 8 9 l 1
 7 9 l 1
 7 8 l 1
 8 8 l 1
 8 7 l 1
 9 7 l 1
 9 6 l 1
 10 6 l 1
 10 5 l 1
 11 5 l 1
 11 4 l 1
 12 4 l 1
 12 3 l 1
 13 3 l 1
 13 2 l 1
 13 1 l 1
 13 0 l 1
 12 0 l 1
 11 0 l 1
 11 1 l 1
 10 1 l 1
 10 2 l 1
 9 2 l 1
 9 3 l 1
 8 3 l 1
 8 4 l 1
 7 4 l 1
 7 5 l 1
 6 5 l 1
 6 6 l 1
 5 6 l 1
 5 7 l 1
 4 7 l 1
 3 7 l 1
 3 6 l 1
 3 5 l 1
 3 4 l 1
 3 3 l 1
 3 2 l 1
 3 1 l 1
 3 0 l 1
 2 0 l 1
 1 0 l 1
 0 0 l 1
 0 1 l 1
 0 2 l 1
 0 3 l 1
 0 4 l 1
 0 5 l 1
 0 6 l 1
 0 7 l 1
 0 8 l 1
 0 9 l 1
 0 10 l 1
 0 11 l 1
 0 12 l 1
 0 13 l 1
 0 14 l 1
 0 15 l 1
 0 16 l 1
 0 17 l 1
EndSplineSet
EndChar

StartChar: L
Encoding: 76 76 43
Width: 16
Flags: HW
LayerCount: 2
Fore
SplineSet
0 17 m 1
 1 17 l 1
 2 17 l 1
 3 17 l 1
 3 16 l 1
 3 15 l 1
 3 14 l 1
 3 13 l 1
 3 12 l 1
 3 11 l 1
 3 10 l 1
 3 9 l 1
 3 8 l 1
 3 7 l 1
 3 6 l 1
 3 5 l 1
 3 4 l 1
 3 3 l 1
 4 3 l 1
 5 3 l 1
 6 3 l 1
 7 3 l 1
 8 3 l 1
 9 3 l 1
 10 3 l 1
 11 3 l 1
 12 3 l 1
 13 3 l 1
 13 2 l 1
 13 1 l 1
 13 0 l 1
 12 0 l 1
 11 0 l 1
 10 0 l 1
 9 0 l 1
 8 0 l 1
 7 0 l 1
 6 0 l 1
 5 0 l 1
 4 0 l 1
 3 0 l 1
 2 0 l 1
 1 0 l 1
 0 0 l 1
 0 1 l 1
 0 2 l 1
 0 3 l 1
 0 4 l 1
 0 5 l 1
 0 6 l 1
 0 7 l 1
 0 8 l 1
 0 9 l 1
 0 10 l 1
 0 11 l 1
 0 12 l 1
 0 13 l 1
 0 14 l 1
 0 15 l 1
 0 16 l 1
 0 17 l 1
EndSplineSet
EndChar

StartChar: M
Encoding: 77 77 44
Width: 16
Flags: HW
LayerCount: 2
Fore
SplineSet
0 17 m 1
 1 17 l 1
 2 17 l 1
 3 17 l 1
 3 16 l 1
 4 16 l 1
 4 15 l 1
 5 15 l 1
 5 14 l 1
 6 14 l 1
 6 13 l 1
 7 13 l 1
 7 14 l 1
 8 14 l 1
 8 15 l 1
 9 15 l 1
 9 16 l 1
 10 16 l 1
 10 17 l 1
 11 17 l 1
 12 17 l 1
 13 17 l 1
 13 16 l 1
 13 15 l 1
 13 14 l 1
 13 13 l 1
 13 12 l 1
 13 11 l 1
 13 10 l 1
 13 9 l 1
 13 8 l 1
 13 7 l 1
 13 6 l 1
 13 5 l 1
 13 4 l 1
 13 3 l 1
 13 2 l 1
 13 1 l 1
 13 0 l 1
 12 0 l 1
 11 0 l 1
 10 0 l 1
 10 1 l 1
 10 2 l 1
 10 3 l 1
 10 4 l 1
 10 5 l 1
 10 6 l 1
 10 7 l 1
 10 8 l 1
 10 9 l 1
 10 10 l 1
 10 11 l 1
 10 12 l 1
 9 12 l 1
 9 11 l 1
 8 11 l 1
 8 10 l 1
 7 10 l 1
 7 9 l 1
 6 9 l 1
 6 10 l 1
 5 10 l 1
 5 11 l 1
 4 11 l 1
 4 12 l 1
 3 12 l 1
 3 11 l 1
 3 10 l 1
 3 9 l 1
 3 8 l 1
 3 7 l 1
 3 6 l 1
 3 5 l 1
 3 4 l 1
 3 3 l 1
 3 2 l 1
 3 1 l 1
 3 0 l 1
 2 0 l 1
 1 0 l 1
 0 0 l 1
 0 1 l 1
 0 2 l 1
 0 3 l 1
 0 4 l 1
 0 5 l 1
 0 6 l 1
 0 7 l 1
 0 8 l 1
 0 9 l 1
 0 10 l 1
 0 11 l 1
 0 12 l 1
 0 13 l 1
 0 14 l 1
 0 15 l 1
 0 16 l 1
 0 17 l 1
EndSplineSet
EndChar

StartChar: N
Encoding: 78 78 45
Width: 16
Flags: HW
LayerCount: 2
Fore
SplineSet
0 17 m 1
 1 17 l 1
 2 17 l 1
 3 17 l 1
 3 16 l 1
 4 16 l 1
 4 15 l 1
 5 15 l 1
 5 14 l 1
 6 14 l 1
 6 13 l 1
 7 13 l 1
 7 12 l 1
 8 12 l 1
 8 11 l 1
 9 11 l 1
 9 10 l 1
 10 10 l 1
 10 11 l 1
 10 12 l 1
 10 13 l 1
 10 14 l 1
 10 15 l 1
 10 16 l 1
 10 17 l 1
 11 17 l 1
 12 17 l 1
 13 17 l 1
 13 16 l 1
 13 15 l 1
 13 14 l 1
 13 13 l 1
 13 12 l 1
 13 11 l 1
 13 10 l 1
 13 9 l 1
 13 8 l 1
 13 7 l 1
 13 6 l 1
 13 5 l 1
 13 4 l 1
 13 3 l 1
 13 2 l 1
 13 1 l 1
 13 0 l 1
 12 0 l 1
 11 0 l 1
 10 0 l 1
 10 1 l 1
 10 2 l 1
 10 3 l 1
 10 4 l 1
 10 5 l 1
 10 6 l 1
 9 6 l 1
 9 7 l 1
 8 7 l 1
 8 8 l 1
 7 8 l 1
 7 9 l 1
 6 9 l 1
 6 10 l 1
 5 10 l 1
 5 11 l 1
 4 11 l 1
 4 12 l 1
 3 12 l 1
 3 11 l 1
 3 10 l 1
 3 9 l 1
 3 8 l 1
 3 7 l 1
 3 6 l 1
 3 5 l 1
 3 4 l 1
 3 3 l 1
 3 2 l 1
 3 1 l 1
 3 0 l 1
 2 0 l 1
 1 0 l 1
 0 0 l 1
 0 1 l 1
 0 2 l 1
 0 3 l 1
 0 4 l 1
 0 5 l 1
 0 6 l 1
 0 7 l 1
 0 8 l 1
 0 9 l 1
 0 10 l 1
 0 11 l 1
 0 12 l 1
 0 13 l 1
 0 14 l 1
 0 15 l 1
 0 16 l 1
 0 17 l 1
EndSplineSet
EndChar

StartChar: O
Encoding: 79 79 46
Width: 16
Flags: HW
LayerCount: 2
Fore
SplineSet
2 17 m 1
 3 17 l 1
 4 17 l 1
 5 17 l 1
 6 17 l 1
 7 17 l 1
 8 17 l 1
 9 17 l 1
 10 17 l 1
 11 17 l 1
 11 16 l 1
 12 16 l 1
 12 15 l 1
 13 15 l 1
 13 14 l 1
 13 13 l 1
 13 12 l 1
 13 11 l 1
 13 10 l 1
 13 9 l 1
 13 8 l 1
 13 7 l 1
 13 6 l 1
 13 5 l 1
 13 4 l 1
 13 3 l 1
 13 2 l 1
 12 2 l 1
 12 1 l 1
 11 1 l 1
 11 0 l 1
 10 0 l 1
 9 0 l 1
 8 0 l 1
 7 0 l 1
 6 0 l 1
 5 0 l 1
 4 0 l 1
 3 0 l 1
 2 0 l 1
 2 1 l 1
 1 1 l 1
 1 2 l 1
 0 2 l 1
 0 3 l 1
 0 4 l 1
 0 5 l 1
 0 6 l 1
 0 7 l 1
 0 8 l 1
 0 9 l 1
 0 10 l 1
 0 11 l 1
 0 12 l 1
 0 13 l 1
 0 14 l 1
 0 15 l 1
 1 15 l 1
 1 16 l 1
 2 16 l 1
 2 17 l 1
4 14 m 1
 4 13 l 1
 3 13 l 1
 3 12 l 1
 3 11 l 1
 3 10 l 1
 3 9 l 1
 3 8 l 1
 3 7 l 1
 3 6 l 1
 3 5 l 1
 3 4 l 1
 4 4 l 1
 4 3 l 1
 5 3 l 1
 6 3 l 1
 7 3 l 1
 8 3 l 1
 9 3 l 1
 9 4 l 1
 10 4 l 1
 10 5 l 1
 10 6 l 1
 10 7 l 1
 10 8 l 1
 10 9 l 1
 10 10 l 1
 10 11 l 1
 10 12 l 1
 10 13 l 1
 9 13 l 1
 9 14 l 1
 8 14 l 1
 7 14 l 1
 6 14 l 1
 5 14 l 1
 4 14 l 1
EndSplineSet
EndChar

StartChar: P
Encoding: 80 80 47
Width: 16
Flags: HW
LayerCount: 2
Fore
SplineSet
0 17 m 1
 1 17 l 1
 2 17 l 1
 3 17 l 1
 4 17 l 1
 5 17 l 1
 6 17 l 1
 7 17 l 1
 8 17 l 1
 9 17 l 1
 10 17 l 1
 11 17 l 1
 11 16 l 1
 12 16 l 1
 12 15 l 1
 13 15 l 1
 13 14 l 1
 13 13 l 1
 13 12 l 1
 13 11 l 1
 13 10 l 1
 13 9 l 1
 13 8 l 1
 12 8 l 1
 12 7 l 1
 11 7 l 1
 11 6 l 1
 10 6 l 1
 9 6 l 1
 8 6 l 1
 7 6 l 1
 6 6 l 1
 5 6 l 1
 4 6 l 1
 3 6 l 1
 3 5 l 1
 3 4 l 1
 3 3 l 1
 3 2 l 1
 3 1 l 1
 3 0 l 1
 2 0 l 1
 1 0 l 1
 0 0 l 1
 0 1 l 1
 0 2 l 1
 0 3 l 1
 0 4 l 1
 0 5 l 1
 0 6 l 1
 0 7 l 1
 0 8 l 1
 0 9 l 1
 0 10 l 1
 0 11 l 1
 0 12 l 1
 0 13 l 1
 0 14 l 1
 0 15 l 1
 0 16 l 1
 0 17 l 1
3 14 m 1
 3 13 l 1
 3 12 l 1
 3 11 l 1
 3 10 l 1
 3 9 l 1
 4 9 l 1
 5 9 l 1
 6 9 l 1
 7 9 l 1
 8 9 l 1
 9 9 l 1
 9 10 l 1
 10 10 l 1
 10 11 l 1
 10 12 l 1
 10 13 l 1
 9 13 l 1
 9 14 l 1
 8 14 l 1
 7 14 l 1
 6 14 l 1
 5 14 l 1
 4 14 l 1
 3 14 l 1
EndSplineSet
EndChar

StartChar: Q
Encoding: 81 81 48
Width: 16
Flags: HW
LayerCount: 2
Fore
SplineSet
2 17 m 1
 3 17 l 1
 4 17 l 1
 5 17 l 1
 6 17 l 1
 7 17 l 1
 8 17 l 1
 9 17 l 1
 10 17 l 1
 11 17 l 1
 11 16 l 1
 12 16 l 1
 12 15 l 1
 13 15 l 1
 13 14 l 1
 13 13 l 1
 13 12 l 1
 13 11 l 1
 13 10 l 1
 13 9 l 1
 13 8 l 1
 13 7 l 1
 13 6 l 1
 13 5 l 1
 13 4 l 1
 13 3 l 1
 12 3 l 1
 12 2 l 1
 13 2 l 1
 13 1 l 1
 13 0 l 1
 12 0 l 1
 11 0 l 1
 11 1 l 1
 10 1 l 1
 10 0 l 1
 9 0 l 1
 8 0 l 1
 7 0 l 1
 6 0 l 1
 5 0 l 1
 4 0 l 1
 3 0 l 1
 2 0 l 1
 2 1 l 1
 1 1 l 1
 1 2 l 1
 0 2 l 1
 0 3 l 1
 0 4 l 1
 0 5 l 1
 0 6 l 1
 0 7 l 1
 0 8 l 1
 0 9 l 1
 0 10 l 1
 0 11 l 1
 0 12 l 1
 0 13 l 1
 0 14 l 1
 0 15 l 1
 1 15 l 1
 1 16 l 1
 2 16 l 1
 2 17 l 1
4 14 m 1
 4 13 l 1
 3 13 l 1
 3 12 l 1
 3 11 l 1
 3 10 l 1
 3 9 l 1
 3 8 l 1
 3 7 l 1
 3 6 l 1
 3 5 l 1
 3 4 l 1
 4 4 l 1
 4 3 l 1
 5 3 l 1
 6 3 l 1
 7 3 l 1
 8 3 l 1
 8 4 l 1
 7 4 l 1
 7 5 l 1
 6 5 l 1
 6 6 l 1
 6 7 l 1
 7 7 l 1
 8 7 l 1
 8 6 l 1
 9 6 l 1
 9 5 l 1
 10 5 l 1
 10 6 l 1
 10 7 l 1
 10 8 l 1
 10 9 l 1
 10 10 l 1
 10 11 l 1
 10 12 l 1
 10 13 l 1
 9 13 l 1
 9 14 l 1
 8 14 l 1
 7 14 l 1
 6 14 l 1
 5 14 l 1
 4 14 l 1
EndSplineSet
EndChar

StartChar: R
Encoding: 82 82 49
Width: 16
Flags: HW
LayerCount: 2
Fore
SplineSet
0 17 m 1
 1 17 l 1
 2 17 l 1
 3 17 l 1
 4 17 l 1
 5 17 l 1
 6 17 l 1
 7 17 l 1
 8 17 l 1
 9 17 l 1
 10 17 l 1
 11 17 l 1
 11 16 l 1
 12 16 l 1
 12 15 l 1
 13 15 l 1
 13 14 l 1
 13 13 l 1
 13 12 l 1
 13 11 l 1
 13 10 l 1
 13 9 l 1
 13 8 l 1
 12 8 l 1
 12 7 l 1
 11 7 l 1
 11 6 l 1
 10 6 l 1
 9 6 l 1
 8 6 l 1
 8 5 l 1
 9 5 l 1
 9 4 l 1
 10 4 l 1
 10 3 l 1
 11 3 l 1
 11 2 l 1
 12 2 l 1
 12 1 l 1
 13 1 l 1
 13 0 l 1
 12 0 l 1
 11 0 l 1
 10 0 l 1
 9 0 l 1
 9 1 l 1
 8 1 l 1
 8 2 l 1
 7 2 l 1
 7 3 l 1
 6 3 l 1
 6 4 l 1
 5 4 l 1
 5 5 l 1
 4 5 l 1
 4 6 l 1
 3 6 l 1
 3 5 l 1
 3 4 l 1
 3 3 l 1
 3 2 l 1
 3 1 l 1
 3 0 l 1
 2 0 l 1
 1 0 l 1
 0 0 l 1
 0 1 l 1
 0 2 l 1
 0 3 l 1
 0 4 l 1
 0 5 l 1
 0 6 l 1
 0 7 l 1
 0 8 l 1
 0 9 l 1
 0 10 l 1
 0 11 l 1
 0 12 l 1
 0 13 l 1
 0 14 l 1
 0 15 l 1
 0 16 l 1
 0 17 l 1
3 14 m 1
 3 13 l 1
 3 12 l 1
 3 11 l 1
 3 10 l 1
 3 9 l 1
 4 9 l 1
 5 9 l 1
 6 9 l 1
 7 9 l 1
 8 9 l 1
 9 9 l 1
 9 10 l 1
 10 10 l 1
 10 11 l 1
 10 12 l 1
 10 13 l 1
 9 13 l 1
 9 14 l 1
 8 14 l 1
 7 14 l 1
 6 14 l 1
 5 14 l 1
 4 14 l 1
 3 14 l 1
EndSplineSet
EndChar

StartChar: S
Encoding: 83 83 50
Width: 16
Flags: HW
LayerCount: 2
Fore
SplineSet
2 17 m 1
 3 17 l 1
 4 17 l 1
 5 17 l 1
 6 17 l 1
 7 17 l 1
 8 17 l 1
 9 17 l 1
 10 17 l 1
 11 17 l 1
 11 16 l 1
 12 16 l 1
 12 15 l 1
 13 15 l 1
 13 14 l 1
 13 13 l 1
 13 12 l 1
 12 12 l 1
 11 12 l 1
 10 12 l 1
 10 13 l 1
 9 13 l 1
 9 14 l 1
 8 14 l 1
 7 14 l 1
 6 14 l 1
 5 14 l 1
 4 14 l 1
 4 13 l 1
 3 13 l 1
 3 12 l 1
 3 11 l 1
 4 11 l 1
 4 10 l 1
 5 10 l 1
 6 10 l 1
 7 10 l 1
 8 10 l 1
 9 10 l 1
 10 10 l 1
 11 10 l 1
 11 9 l 1
 12 9 l 1
 12 8 l 1
 13 8 l 1
 13 7 l 1
 13 6 l 1
 13 5 l 1
 13 4 l 1
 13 3 l 1
 13 2 l 1
 12 2 l 1
 12 1 l 1
 11 1 l 1
 11 0 l 1
 10 0 l 1
 9 0 l 1
 8 0 l 1
 7 0 l 1
 6 0 l 1
 5 0 l 1
 4 0 l 1
 3 0 l 1
 2 0 l 1
 2 1 l 1
 1 1 l 1
 1 2 l 1
 0 2 l 1
 0 3 l 1
 0 4 l 1
 0 5 l 1
 1 5 l 1
 2 5 l 1
 3 5 l 1
 3 4 l 1
 4 4 l 1
 4 3 l 1
 5 3 l 1
 6 3 l 1
 7 3 l 1
 8 3 l 1
 9 3 l 1
 9 4 l 1
 10 4 l 1
 10 5 l 1
 10 6 l 1
 9 6 l 1
 9 7 l 1
 8 7 l 1
 7 7 l 1
 6 7 l 1
 5 7 l 1
 4 7 l 1
 3 7 l 1
 2 7 l 1
 2 8 l 1
 1 8 l 1
 1 9 l 1
 0 9 l 1
 0 10 l 1
 0 11 l 1
 0 12 l 1
 0 13 l 1
 0 14 l 1
 0 15 l 1
 1 15 l 1
 1 16 l 1
 2 16 l 1
 2 17 l 1
EndSplineSet
EndChar

StartChar: T
Encoding: 84 84 51
Width: 16
Flags: HW
LayerCount: 2
Fore
SplineSet
0 17 m 1
 1 17 l 1
 2 17 l 1
 3 17 l 1
 4 17 l 1
 5 17 l 1
 6 17 l 1
 7 17 l 1
 8 17 l 1
 9 17 l 1
 10 17 l 1
 11 17 l 1
 12 17 l 1
 13 17 l 1
 13 16 l 1
 13 15 l 1
 13 14 l 1
 12 14 l 1
 11 14 l 1
 10 14 l 1
 9 14 l 1
 8 14 l 1
 8 13 l 1
 8 12 l 1
 8 11 l 1
 8 10 l 1
 8 9 l 1
 8 8 l 1
 8 7 l 1
 8 6 l 1
 8 5 l 1
 8 4 l 1
 8 3 l 1
 8 2 l 1
 8 1 l 1
 8 0 l 1
 7 0 l 1
 6 0 l 1
 5 0 l 1
 5 1 l 1
 5 2 l 1
 5 3 l 1
 5 4 l 1
 5 5 l 1
 5 6 l 1
 5 7 l 1
 5 8 l 1
 5 9 l 1
 5 10 l 1
 5 11 l 1
 5 12 l 1
 5 13 l 1
 5 14 l 1
 4 14 l 1
 3 14 l 1
 2 14 l 1
 1 14 l 1
 0 14 l 1
 0 15 l 1
 0 16 l 1
 0 17 l 1
EndSplineSet
EndChar

StartChar: U
Encoding: 85 85 52
Width: 16
Flags: HW
LayerCount: 2
Fore
SplineSet
0 17 m 1
 1 17 l 1
 2 17 l 1
 3 17 l 1
 3 16 l 1
 3 15 l 1
 3 14 l 1
 3 13 l 1
 3 12 l 1
 3 11 l 1
 3 10 l 1
 3 9 l 1
 3 8 l 1
 3 7 l 1
 3 6 l 1
 3 5 l 1
 3 4 l 1
 4 4 l 1
 4 3 l 1
 5 3 l 1
 6 3 l 1
 7 3 l 1
 8 3 l 1
 9 3 l 1
 9 4 l 1
 10 4 l 1
 10 5 l 1
 10 6 l 1
 10 7 l 1
 10 8 l 1
 10 9 l 1
 10 10 l 1
 10 11 l 1
 10 12 l 1
 10 13 l 1
 10 14 l 1
 10 15 l 1
 10 16 l 1
 10 17 l 1
 11 17 l 1
 12 17 l 1
 13 17 l 1
 13 16 l 1
 13 15 l 1
 13 14 l 1
 13 13 l 1
 13 12 l 1
 13 11 l 1
 13 10 l 1
 13 9 l 1
 13 8 l 1
 13 7 l 1
 13 6 l 1
 13 5 l 1
 13 4 l 1
 13 3 l 1
 13 2 l 1
 12 2 l 1
 12 1 l 1
 11 1 l 1
 11 0 l 1
 10 0 l 1
 9 0 l 1
 8 0 l 1
 7 0 l 1
 6 0 l 1
 5 0 l 1
 4 0 l 1
 3 0 l 1
 2 0 l 1
 2 1 l 1
 1 1 l 1
 1 2 l 1
 0 2 l 1
 0 3 l 1
 0 4 l 1
 0 5 l 1
 0 6 l 1
 0 7 l 1
 0 8 l 1
 0 9 l 1
 0 10 l 1
 0 11 l 1
 0 12 l 1
 0 13 l 1
 0 14 l 1
 0 15 l 1
 0 16 l 1
 0 17 l 1
EndSplineSet
EndChar

StartChar: V
Encoding: 86 86 53
Width: 16
Flags: HW
LayerCount: 2
Fore
SplineSet
0 17 m 1
 1 17 l 1
 2 17 l 1
 3 17 l 1
 3 16 l 1
 3 15 l 1
 3 14 l 1
 3 13 l 1
 3 12 l 1
 3 11 l 1
 3 10 l 1
 3 9 l 1
 3 8 l 1
 3 7 l 1
 3 6 l 1
 4 6 l 1
 4 5 l 1
 5 5 l 1
 5 4 l 1
 6 4 l 1
 6 3 l 1
 7 3 l 1
 7 4 l 1
 8 4 l 1
 8 5 l 1
 9 5 l 1
 9 6 l 1
 10 6 l 1
 10 7 l 1
 10 8 l 1
 10 9 l 1
 10 10 l 1
 10 11 l 1
 10 12 l 1
 10 13 l 1
 10 14 l 1
 10 15 l 1
 10 16 l 1
 10 17 l 1
 11 17 l 1
 12 17 l 1
 13 17 l 1
 13 16 l 1
 13 15 l 1
 13 14 l 1
 13 13 l 1
 13 12 l 1
 13 11 l 1
 13 10 l 1
 13 9 l 1
 13 8 l 1
 13 7 l 1
 13 6 l 1
 13 5 l 1
 12 5 l 1
 12 4 l 1
 11 4 l 1
 11 3 l 1
 10 3 l 1
 10 2 l 1
 9 2 l 1
 9 1 l 1
 8 1 l 1
 8 0 l 1
 7 0 l 1
 6 0 l 1
 5 0 l 1
 5 1 l 1
 4 1 l 1
 4 2 l 1
 3 2 l 1
 3 3 l 1
 2 3 l 1
 2 4 l 1
 1 4 l 1
 1 5 l 1
 0 5 l 1
 0 6 l 1
 0 7 l 1
 0 8 l 1
 0 9 l 1
 0 10 l 1
 0 11 l 1
 0 12 l 1
 0 13 l 1
 0 14 l 1
 0 15 l 1
 0 16 l 1
 0 17 l 1
EndSplineSet
EndChar

StartChar: W
Encoding: 87 87 54
Width: 16
Flags: HW
LayerCount: 2
Fore
SplineSet
0 17 m 1
 1 17 l 1
 2 17 l 1
 3 17 l 1
 3 16 l 1
 3 15 l 1
 3 14 l 1
 3 13 l 1
 3 12 l 1
 3 11 l 1
 3 10 l 1
 3 9 l 1
 3 8 l 1
 3 7 l 1
 3 6 l 1
 3 5 l 1
 3 4 l 1
 4 4 l 1
 4 5 l 1
 5 5 l 1
 5 6 l 1
 6 6 l 1
 6 7 l 1
 7 7 l 1
 7 6 l 1
 8 6 l 1
 8 5 l 1
 9 5 l 1
 9 4 l 1
 10 4 l 1
 10 5 l 1
 10 6 l 1
 10 7 l 1
 10 8 l 1
 10 9 l 1
 10 10 l 1
 10 11 l 1
 10 12 l 1
 10 13 l 1
 10 14 l 1
 10 15 l 1
 10 16 l 1
 10 17 l 1
 11 17 l 1
 12 17 l 1
 13 17 l 1
 13 16 l 1
 13 15 l 1
 13 14 l 1
 13 13 l 1
 13 12 l 1
 13 11 l 1
 13 10 l 1
 13 9 l 1
 13 8 l 1
 13 7 l 1
 13 6 l 1
 13 5 l 1
 13 4 l 1
 13 3 l 1
 13 2 l 1
 13 1 l 1
 13 0 l 1
 12 0 l 1
 11 0 l 1
 10 0 l 1
 9 0 l 1
 9 1 l 1
 8 1 l 1
 8 2 l 1
 7 2 l 1
 7 3 l 1
 6 3 l 1
 6 2 l 1
 5 2 l 1
 5 1 l 1
 4 1 l 1
 4 0 l 1
 3 0 l 1
 2 0 l 1
 1 0 l 1
 0 0 l 1
 0 1 l 1
 0 2 l 1
 0 3 l 1
 0 4 l 1
 0 5 l 1
 0 6 l 1
 0 7 l 1
 0 8 l 1
 0 9 l 1
 0 10 l 1
 0 11 l 1
 0 12 l 1
 0 13 l 1
 0 14 l 1
 0 15 l 1
 0 16 l 1
 0 17 l 1
EndSplineSet
EndChar

StartChar: X
Encoding: 88 88 55
Width: 16
Flags: HW
LayerCount: 2
Fore
SplineSet
0 17 m 1
 1 17 l 1
 2 17 l 1
 3 17 l 1
 3 16 l 1
 3 15 l 1
 3 14 l 1
 4 14 l 1
 4 13 l 1
 5 13 l 1
 5 12 l 1
 6 12 l 1
 6 11 l 1
 7 11 l 1
 7 12 l 1
 8 12 l 1
 8 13 l 1
 9 13 l 1
 9 14 l 1
 10 14 l 1
 10 15 l 1
 10 16 l 1
 10 17 l 1
 11 17 l 1
 12 17 l 1
 13 17 l 1
 13 16 l 1
 13 15 l 1
 13 14 l 1
 13 13 l 1
 13 12 l 1
 12 12 l 1
 12 11 l 1
 11 11 l 1
 11 10 l 1
 10 10 l 1
 10 9 l 1
 9 9 l 1
 9 8 l 1
 10 8 l 1
 10 7 l 1
 11 7 l 1
 11 6 l 1
 12 6 l 1
 12 5 l 1
 13 5 l 1
 13 4 l 1
 13 3 l 1
 13 2 l 1
 13 1 l 1
 13 0 l 1
 12 0 l 1
 11 0 l 1
 10 0 l 1
 10 1 l 1
 10 2 l 1
 10 3 l 1
 9 3 l 1
 9 4 l 1
 8 4 l 1
 8 5 l 1
 7 5 l 1
 7 6 l 1
 6 6 l 1
 6 5 l 1
 5 5 l 1
 5 4 l 1
 4 4 l 1
 4 3 l 1
 3 3 l 1
 3 2 l 1
 3 1 l 1
 3 0 l 1
 2 0 l 1
 1 0 l 1
 0 0 l 1
 0 1 l 1
 0 2 l 1
 0 3 l 1
 0 4 l 1
 0 5 l 1
 1 5 l 1
 1 6 l 1
 2 6 l 1
 2 7 l 1
 3 7 l 1
 3 8 l 1
 4 8 l 1
 4 9 l 1
 3 9 l 1
 3 10 l 1
 2 10 l 1
 2 11 l 1
 1 11 l 1
 1 12 l 1
 0 12 l 1
 0 13 l 1
 0 14 l 1
 0 15 l 1
 0 16 l 1
 0 17 l 1
EndSplineSet
EndChar

StartChar: Y
Encoding: 89 89 56
Width: 16
Flags: HW
LayerCount: 2
Fore
SplineSet
0 17 m 1
 1 17 l 1
 2 17 l 1
 3 17 l 1
 3 16 l 1
 3 15 l 1
 3 14 l 1
 4 14 l 1
 4 13 l 1
 5 13 l 1
 5 12 l 1
 6 12 l 1
 6 11 l 1
 7 11 l 1
 7 12 l 1
 8 12 l 1
 8 13 l 1
 9 13 l 1
 9 14 l 1
 10 14 l 1
 10 15 l 1
 10 16 l 1
 10 17 l 1
 11 17 l 1
 12 17 l 1
 13 17 l 1
 13 16 l 1
 13 15 l 1
 13 14 l 1
 13 13 l 1
 13 12 l 1
 12 12 l 1
 12 11 l 1
 11 11 l 1
 11 10 l 1
 10 10 l 1
 10 9 l 1
 9 9 l 1
 9 8 l 1
 8 8 l 1
 8 7 l 1
 8 6 l 1
 8 5 l 1
 8 4 l 1
 8 3 l 1
 8 2 l 1
 8 1 l 1
 8 0 l 1
 7 0 l 1
 6 0 l 1
 5 0 l 1
 5 1 l 1
 5 2 l 1
 5 3 l 1
 5 4 l 1
 5 5 l 1
 5 6 l 1
 5 7 l 1
 5 8 l 1
 4 8 l 1
 4 9 l 1
 3 9 l 1
 3 10 l 1
 2 10 l 1
 2 11 l 1
 1 11 l 1
 1 12 l 1
 0 12 l 1
 0 13 l 1
 0 14 l 1
 0 15 l 1
 0 16 l 1
 0 17 l 1
EndSplineSet
EndChar

StartChar: Z
Encoding: 90 90 57
Width: 16
Flags: HW
LayerCount: 2
Fore
SplineSet
0 17 m 1
 1 17 l 1
 2 17 l 1
 3 17 l 1
 4 17 l 1
 5 17 l 1
 6 17 l 1
 7 17 l 1
 8 17 l 1
 9 17 l 1
 10 17 l 1
 11 17 l 1
 12 17 l 1
 13 17 l 1
 13 16 l 1
 13 15 l 1
 13 14 l 1
 13 13 l 1
 13 12 l 1
 12 12 l 1
 12 11 l 1
 11 11 l 1
 11 10 l 1
 10 10 l 1
 10 9 l 1
 9 9 l 1
 9 8 l 1
 8 8 l 1
 8 7 l 1
 7 7 l 1
 7 6 l 1
 6 6 l 1
 6 5 l 1
 5 5 l 1
 5 4 l 1
 4 4 l 1
 4 3 l 1
 5 3 l 1
 6 3 l 1
 7 3 l 1
 8 3 l 1
 9 3 l 1
 10 3 l 1
 11 3 l 1
 12 3 l 1
 13 3 l 1
 13 2 l 1
 13 1 l 1
 13 0 l 1
 12 0 l 1
 11 0 l 1
 10 0 l 1
 9 0 l 1
 8 0 l 1
 7 0 l 1
 6 0 l 1
 5 0 l 1
 4 0 l 1
 3 0 l 1
 2 0 l 1
 1 0 l 1
 0 0 l 1
 0 1 l 1
 0 2 l 1
 0 3 l 1
 0 4 l 1
 1 4 l 1
 1 5 l 1
 2 5 l 1
 2 6 l 1
 3 6 l 1
 3 7 l 1
 4 7 l 1
 4 8 l 1
 5 8 l 1
 5 9 l 1
 6 9 l 1
 6 10 l 1
 7 10 l 1
 7 11 l 1
 8 11 l 1
 8 12 l 1
 9 12 l 1
 9 13 l 1
 10 13 l 1
 10 14 l 1
 9 14 l 1
 8 14 l 1
 7 14 l 1
 6 14 l 1
 5 14 l 1
 4 14 l 1
 3 14 l 1
 2 14 l 1
 1 14 l 1
 0 14 l 1
 0 15 l 1
 0 16 l 1
 0 17 l 1
EndSplineSet
EndChar

StartChar: bracketleft
Encoding: 91 91 58
Width: 16
Flags: HW
LayerCount: 2
Fore
SplineSet
3 17 m 1
 4 17 l 1
 5 17 l 1
 6 17 l 1
 7 17 l 1
 8 17 l 1
 9 17 l 1
 10 17 l 1
 10 16 l 1
 10 15 l 1
 10 14 l 1
 9 14 l 1
 8 14 l 1
 7 14 l 1
 6 14 l 1
 6 13 l 1
 6 12 l 1
 6 11 l 1
 6 10 l 1
 6 9 l 1
 6 8 l 1
 6 7 l 1
 6 6 l 1
 6 5 l 1
 6 4 l 1
 6 3 l 1
 7 3 l 1
 8 3 l 1
 9 3 l 1
 10 3 l 1
 10 2 l 1
 10 1 l 1
 10 0 l 1
 9 0 l 1
 8 0 l 1
 7 0 l 1
 6 0 l 1
 5 0 l 1
 4 0 l 1
 3 0 l 1
 3 1 l 1
 3 2 l 1
 3 3 l 1
 3 4 l 1
 3 5 l 1
 3 6 l 1
 3 7 l 1
 3 8 l 1
 3 9 l 1
 3 10 l 1
 3 11 l 1
 3 12 l 1
 3 13 l 1
 3 14 l 1
 3 15 l 1
 3 16 l 1
 3 17 l 1
EndSplineSet
EndChar

StartChar: backslash
Encoding: 92 92 59
Width: 16
Flags: HW
LayerCount: 2
Fore
SplineSet
0 17 m 1
 1 17 l 1
 2 17 l 1
 3 17 l 1
 3 16 l 1
 3 15 l 1
 3 14 l 1
 4 14 l 1
 4 13 l 1
 5 13 l 1
 5 12 l 1
 6 12 l 1
 6 11 l 1
 7 11 l 1
 7 10 l 1
 8 10 l 1
 8 9 l 1
 9 9 l 1
 9 8 l 1
 10 8 l 1
 10 7 l 1
 11 7 l 1
 11 6 l 1
 12 6 l 1
 12 5 l 1
 13 5 l 1
 13 4 l 1
 13 3 l 1
 13 2 l 1
 13 1 l 1
 13 0 l 1
 12 0 l 1
 11 0 l 1
 10 0 l 1
 10 1 l 1
 10 2 l 1
 10 3 l 1
 9 3 l 1
 9 4 l 1
 8 4 l 1
 8 5 l 1
 7 5 l 1
 7 6 l 1
 6 6 l 1
 6 7 l 1
 5 7 l 1
 5 8 l 1
 4 8 l 1
 4 9 l 1
 3 9 l 1
 3 10 l 1
 2 10 l 1
 2 11 l 1
 1 11 l 1
 1 12 l 1
 0 12 l 1
 0 13 l 1
 0 14 l 1
 0 15 l 1
 0 16 l 1
 0 17 l 1
EndSplineSet
EndChar

StartChar: bracketright
Encoding: 93 93 60
Width: 16
Flags: HW
LayerCount: 2
Fore
SplineSet
3 17 m 1
 4 17 l 1
 5 17 l 1
 6 17 l 1
 7 17 l 1
 8 17 l 1
 9 17 l 1
 10 17 l 1
 10 16 l 1
 10 15 l 1
 10 14 l 1
 10 13 l 1
 10 12 l 1
 10 11 l 1
 10 10 l 1
 10 9 l 1
 10 8 l 1
 10 7 l 1
 10 6 l 1
 10 5 l 1
 10 4 l 1
 10 3 l 1
 10 2 l 1
 10 1 l 1
 10 0 l 1
 9 0 l 1
 8 0 l 1
 7 0 l 1
 6 0 l 1
 5 0 l 1
 4 0 l 1
 3 0 l 1
 3 1 l 1
 3 2 l 1
 3 3 l 1
 4 3 l 1
 5 3 l 1
 6 3 l 1
 7 3 l 1
 7 4 l 1
 7 5 l 1
 7 6 l 1
 7 7 l 1
 7 8 l 1
 7 9 l 1
 7 10 l 1
 7 11 l 1
 7 12 l 1
 7 13 l 1
 7 14 l 1
 6 14 l 1
 5 14 l 1
 4 14 l 1
 3 14 l 1
 3 15 l 1
 3 16 l 1
 3 17 l 1
EndSplineSet
EndChar

StartChar: asciicircum
Encoding: 94 94 61
Width: 16
Flags: HW
LayerCount: 2
Fore
SplineSet
6 17 m 1
 7 17 l 1
 7 16 l 1
 8 16 l 1
 8 15 l 1
 9 15 l 1
 9 14 l 1
 10 14 l 1
 10 13 l 1
 11 13 l 1
 11 12 l 1
 12 12 l 1
 12 11 l 1
 13 11 l 1
 13 10 l 1
 13 9 l 1
 12 9 l 1
 11 9 l 1
 10 9 l 1
 10 10 l 1
 9 10 l 1
 9 11 l 1
 8 11 l 1
 8 12 l 1
 7 12 l 1
 7 13 l 1
 6 13 l 1
 6 12 l 1
 5 12 l 1
 5 11 l 1
 4 11 l 1
 4 10 l 1
 3 10 l 1
 3 9 l 1
 2 9 l 1
 1 9 l 1
 0 9 l 1
 0 10 l 1
 0 11 l 1
 1 11 l 1
 1 12 l 1
 2 12 l 1
 2 13 l 1
 3 13 l 1
 3 14 l 1
 4 14 l 1
 4 15 l 1
 5 15 l 1
 5 16 l 1
 6 16 l 1
 6 17 l 1
EndSplineSet
EndChar

StartChar: underscore
Encoding: 95 95 62
Width: 16
Flags: HW
LayerCount: 2
Fore
SplineSet
0 3 m 1
 1 3 l 1
 2 3 l 1
 3 3 l 1
 4 3 l 1
 5 3 l 1
 6 3 l 1
 7 3 l 1
 8 3 l 1
 9 3 l 1
 10 3 l 1
 11 3 l 1
 12 3 l 1
 13 3 l 1
 13 2 l 1
 13 1 l 1
 13 0 l 1
 12 0 l 1
 11 0 l 1
 10 0 l 1
 9 0 l 1
 8 0 l 1
 7 0 l 1
 6 0 l 1
 5 0 l 1
 4 0 l 1
 3 0 l 1
 2 0 l 1
 1 0 l 1
 0 0 l 1
 0 1 l 1
 0 2 l 1
 0 3 l 1
EndSplineSet
EndChar

StartChar: grave
Encoding: 96 96 63
Width: 8
Flags: HW
LayerCount: 2
Fore
SplineSet
0 17 m 1
 1 17 l 1
 2 17 l 1
 2 16 l 1
 3 16 l 1
 3 15 l 1
 4 15 l 1
 4 14 l 1
 5 14 l 1
 5 13 l 1
 5 12 l 1
 4 12 l 1
 3 12 l 1
 3 13 l 1
 2 13 l 1
 2 14 l 1
 1 14 l 1
 1 15 l 1
 0 15 l 1
 0 16 l 1
 0 17 l 1
EndSplineSet
EndChar

StartChar: a
Encoding: 97 97 64
Width: 16
Flags: HW
LayerCount: 2
Fore
SplineSet
2 11 m 1
 3 11 l 1
 4 11 l 1
 5 11 l 1
 6 11 l 1
 7 11 l 1
 8 11 l 1
 9 11 l 1
 10 11 l 1
 11 11 l 1
 11 10 l 1
 12 10 l 1
 12 9 l 1
 13 9 l 1
 13 8 l 1
 13 7 l 1
 13 6 l 1
 13 5 l 1
 13 4 l 1
 13 3 l 1
 13 2 l 1
 12 2 l 1
 12 1 l 1
 11 1 l 1
 11 0 l 1
 10 0 l 1
 9 0 l 1
 8 0 l 1
 7 0 l 1
 6 0 l 1
 5 0 l 1
 4 0 l 1
 3 0 l 1
 2 0 l 1
 2 1 l 1
 1 1 l 1
 1 2 l 1
 0 2 l 1
 0 3 l 1
 0 4 l 1
 0 5 l 1
 0 6 l 1
 1 6 l 1
 1 7 l 1
 2 7 l 1
 3 7 l 1
 4 7 l 1
 5 7 l 1
 6 7 l 1
 7 7 l 1
 8 7 l 1
 9 7 l 1
 10 7 l 1
 10 8 l 1
 9 8 l 1
 8 8 l 1
 7 8 l 1
 6 8 l 1
 5 8 l 1
 4 8 l 1
 3 8 l 1
 2 8 l 1
 1 8 l 1
 0 8 l 1
 0 9 l 1
 1 9 l 1
 1 10 l 1
 2 10 l 1
 2 11 l 1
3 4 m 1
 3 3 l 1
 4 3 l 1
 5 3 l 1
 6 3 l 1
 7 3 l 1
 8 3 l 1
 9 3 l 1
 10 3 l 1
 10 4 l 1
 9 4 l 1
 8 4 l 1
 7 4 l 1
 6 4 l 1
 5 4 l 1
 4 4 l 1
 3 4 l 1
EndSplineSet
EndChar

StartChar: b
Encoding: 98 98 65
Width: 16
Flags: HW
LayerCount: 2
Fore
SplineSet
0 17 m 5
 1 17 l 5
 2 17 l 5
 3 17 l 5
 3 16 l 5
 3 15 l 5
 3 14 l 5
 3 13 l 5
 3 12 l 5
 3 11 l 5
 4 11 l 5
 5 11 l 5
 6 11 l 5
 7 11 l 5
 8 11 l 5
 9 11 l 5
 10 11 l 5
 11 11 l 5
 11 10 l 5
 12 10 l 5
 12 9 l 5
 13 9 l 5
 13 8 l 5
 13 7 l 5
 13 6 l 5
 13 5 l 5
 13 4 l 5
 13 3 l 5
 13 2 l 5
 12 2 l 5
 12 1 l 5
 11 1 l 5
 11 0 l 5
 10 0 l 5
 9 0 l 5
 8 0 l 5
 7 0 l 5
 6 0 l 5
 5 0 l 5
 4 0 l 5
 3 0 l 5
 2 0 l 5
 1 0 l 5
 0 0 l 5
 0 1 l 5
 0 2 l 5
 0 3 l 5
 0 4 l 5
 0 5 l 5
 0 6 l 5
 0 7 l 5
 0 8 l 5
 0 9 l 5
 0 10 l 5
 0 11 l 5
 0 12 l 5
 0 13 l 5
 0 14 l 5
 0 15 l 5
 0 16 l 5
 0 17 l 5
3 8 m 5
 3 7 l 5
 3 6 l 5
 3 5 l 5
 3 4 l 5
 3 3 l 5
 4 3 l 5
 5 3 l 5
 6 3 l 5
 7 3 l 5
 8 3 l 5
 9 3 l 5
 10 3 l 5
 10 4 l 5
 10 5 l 5
 10 6 l 5
 10 7 l 5
 10 8 l 5
 9 8 l 5
 8 8 l 5
 7 8 l 5
 6 8 l 5
 5 8 l 5
 4 8 l 5
 3 8 l 5
EndSplineSet
EndChar

StartChar: c
Encoding: 99 99 66
Width: 16
Flags: HW
LayerCount: 2
Fore
SplineSet
2 11 m 1
 3 11 l 1
 4 11 l 1
 5 11 l 1
 6 11 l 1
 7 11 l 1
 8 11 l 1
 9 11 l 1
 10 11 l 1
 11 11 l 1
 12 11 l 1
 13 11 l 1
 13 10 l 1
 13 9 l 1
 13 8 l 1
 12 8 l 1
 11 8 l 1
 10 8 l 1
 9 8 l 1
 8 8 l 1
 7 8 l 1
 6 8 l 1
 5 8 l 1
 4 8 l 1
 4 7 l 1
 3 7 l 1
 3 6 l 1
 3 5 l 1
 3 4 l 1
 4 4 l 1
 4 3 l 1
 5 3 l 1
 6 3 l 1
 7 3 l 1
 8 3 l 1
 9 3 l 1
 10 3 l 1
 11 3 l 1
 12 3 l 1
 13 3 l 1
 13 2 l 1
 13 1 l 1
 13 0 l 1
 12 0 l 1
 11 0 l 1
 10 0 l 1
 9 0 l 1
 8 0 l 1
 7 0 l 1
 6 0 l 1
 5 0 l 1
 4 0 l 1
 3 0 l 1
 2 0 l 1
 2 1 l 1
 1 1 l 1
 1 2 l 1
 0 2 l 1
 0 3 l 1
 0 4 l 1
 0 5 l 1
 0 6 l 1
 0 7 l 1
 0 8 l 1
 0 9 l 1
 1 9 l 1
 1 10 l 1
 2 10 l 1
 2 11 l 1
EndSplineSet
EndChar

StartChar: d
Encoding: 100 100 67
Width: 16
Flags: HW
LayerCount: 2
Fore
SplineSet
10 17 m 1
 11 17 l 1
 12 17 l 1
 13 17 l 1
 13 16 l 1
 13 15 l 1
 13 14 l 1
 13 13 l 1
 13 12 l 1
 13 11 l 1
 13 10 l 1
 13 9 l 1
 13 8 l 1
 13 7 l 1
 13 6 l 1
 13 5 l 1
 13 4 l 1
 13 3 l 1
 13 2 l 1
 13 1 l 1
 13 0 l 1
 12 0 l 1
 11 0 l 1
 10 0 l 1
 9 0 l 1
 8 0 l 1
 7 0 l 1
 6 0 l 1
 5 0 l 1
 4 0 l 1
 3 0 l 1
 2 0 l 1
 2 1 l 1
 1 1 l 1
 1 2 l 1
 0 2 l 1
 0 3 l 1
 0 4 l 1
 0 5 l 1
 0 6 l 1
 0 7 l 1
 0 8 l 1
 0 9 l 1
 1 9 l 1
 1 10 l 1
 2 10 l 1
 2 11 l 1
 3 11 l 1
 4 11 l 1
 5 11 l 1
 6 11 l 1
 7 11 l 1
 8 11 l 1
 9 11 l 1
 10 11 l 1
 10 12 l 1
 10 13 l 1
 10 14 l 1
 10 15 l 1
 10 16 l 1
 10 17 l 1
3 8 m 1
 3 7 l 1
 3 6 l 1
 3 5 l 1
 3 4 l 1
 3 3 l 1
 4 3 l 1
 5 3 l 1
 6 3 l 1
 7 3 l 1
 8 3 l 1
 9 3 l 1
 10 3 l 1
 10 4 l 1
 10 5 l 1
 10 6 l 1
 10 7 l 1
 10 8 l 1
 9 8 l 1
 8 8 l 1
 7 8 l 1
 6 8 l 1
 5 8 l 1
 4 8 l 1
 3 8 l 1
EndSplineSet
EndChar

StartChar: e
Encoding: 101 101 68
Width: 16
Flags: HW
LayerCount: 2
Fore
SplineSet
2 11 m 1
 3 11 l 1
 4 11 l 1
 5 11 l 1
 6 11 l 1
 7 11 l 1
 8 11 l 1
 9 11 l 1
 10 11 l 1
 11 11 l 1
 11 10 l 1
 12 10 l 1
 12 9 l 1
 13 9 l 1
 13 8 l 1
 13 7 l 1
 13 6 l 1
 13 5 l 1
 13 4 l 1
 12 4 l 1
 11 4 l 1
 10 4 l 1
 9 4 l 1
 8 4 l 1
 7 4 l 1
 6 4 l 1
 5 4 l 1
 4 4 l 1
 3 4 l 1
 3 3 l 1
 4 3 l 1
 5 3 l 1
 6 3 l 1
 7 3 l 1
 8 3 l 1
 9 3 l 1
 10 3 l 1
 11 3 l 1
 12 3 l 1
 13 3 l 1
 13 2 l 1
 12 2 l 1
 12 1 l 1
 11 1 l 1
 11 0 l 1
 10 0 l 1
 9 0 l 1
 8 0 l 1
 7 0 l 1
 6 0 l 1
 5 0 l 1
 4 0 l 1
 3 0 l 1
 2 0 l 1
 2 1 l 1
 1 1 l 1
 1 2 l 1
 0 2 l 1
 0 3 l 1
 0 4 l 1
 0 5 l 1
 0 6 l 1
 0 7 l 1
 0 8 l 1
 0 9 l 1
 1 9 l 1
 1 10 l 1
 2 10 l 1
 2 11 l 1
3 8 m 1
 3 7 l 1
 4 7 l 1
 5 7 l 1
 6 7 l 1
 7 7 l 1
 8 7 l 1
 9 7 l 1
 10 7 l 1
 10 8 l 1
 9 8 l 1
 8 8 l 1
 7 8 l 1
 6 8 l 1
 5 8 l 1
 4 8 l 1
 3 8 l 1
EndSplineSet
EndChar

StartChar: f
Encoding: 102 102 69
Width: 16
Flags: HW
LayerCount: 2
Fore
SplineSet
7 17 m 1
 8 17 l 1
 9 17 l 1
 10 17 l 1
 11 17 l 1
 12 17 l 1
 13 17 l 1
 13 16 l 1
 13 15 l 1
 13 14 l 1
 12 14 l 1
 11 14 l 1
 10 14 l 1
 9 14 l 1
 9 13 l 1
 8 13 l 1
 8 12 l 1
 8 11 l 1
 9 11 l 1
 10 11 l 1
 11 11 l 1
 12 11 l 1
 13 11 l 1
 13 10 l 1
 13 9 l 1
 13 8 l 1
 12 8 l 1
 11 8 l 1
 10 8 l 1
 9 8 l 1
 8 8 l 1
 8 7 l 1
 8 6 l 1
 8 5 l 1
 8 4 l 1
 8 3 l 1
 8 2 l 1
 8 1 l 1
 8 0 l 1
 7 0 l 1
 6 0 l 1
 5 0 l 1
 5 1 l 1
 5 2 l 1
 5 3 l 1
 5 4 l 1
 5 5 l 1
 5 6 l 1
 5 7 l 1
 5 8 l 1
 4 8 l 1
 3 8 l 1
 2 8 l 1
 1 8 l 1
 0 8 l 1
 0 9 l 1
 0 10 l 1
 0 11 l 1
 1 11 l 1
 2 11 l 1
 3 11 l 1
 4 11 l 1
 5 11 l 1
 5 12 l 1
 5 13 l 1
 5 14 l 1
 5 15 l 1
 6 15 l 1
 6 16 l 1
 7 16 l 1
 7 17 l 1
EndSplineSet
EndChar

StartChar: g
Encoding: 103 103 70
Width: 16
Flags: HW
LayerCount: 2
Fore
SplineSet
2 11 m 1
 3 11 l 1
 4 11 l 1
 5 11 l 1
 6 11 l 1
 7 11 l 1
 8 11 l 1
 9 11 l 1
 10 11 l 1
 11 11 l 1
 11 10 l 1
 12 10 l 1
 12 9 l 1
 13 9 l 1
 13 8 l 1
 13 7 l 1
 13 6 l 1
 13 5 l 1
 13 4 l 1
 13 3 l 1
 13 2 l 1
 13 1 l 1
 13 0 l 1
 13 -1 l 1
 13 -2 l 1
 13 -3 l 1
 13 -4 l 1
 12 -4 l 1
 12 -5 l 1
 11 -5 l 1
 11 -6 l 1
 10 -6 l 1
 9 -6 l 1
 8 -6 l 1
 7 -6 l 1
 6 -6 l 1
 5 -6 l 1
 4 -6 l 1
 3 -6 l 1
 2 -6 l 1
 2 -5 l 1
 1 -5 l 1
 1 -4 l 1
 0 -4 l 1
 0 -3 l 1
 1 -3 l 1
 2 -3 l 1
 3 -3 l 1
 4 -3 l 1
 5 -3 l 1
 6 -3 l 1
 7 -3 l 1
 8 -3 l 1
 9 -3 l 1
 10 -3 l 1
 10 -2 l 1
 10 -1 l 1
 10 0 l 1
 9 0 l 1
 8 0 l 1
 7 0 l 1
 6 0 l 1
 5 0 l 1
 4 0 l 1
 3 0 l 1
 2 0 l 1
 2 1 l 1
 1 1 l 1
 1 2 l 1
 0 2 l 1
 0 3 l 1
 0 4 l 1
 0 5 l 1
 0 6 l 1
 0 7 l 1
 0 8 l 1
 0 9 l 1
 1 9 l 1
 1 10 l 1
 2 10 l 1
 2 11 l 1
3 8 m 1
 3 7 l 1
 3 6 l 1
 3 5 l 1
 3 4 l 1
 3 3 l 1
 4 3 l 1
 5 3 l 1
 6 3 l 1
 7 3 l 1
 8 3 l 1
 9 3 l 1
 10 3 l 1
 10 4 l 1
 10 5 l 1
 10 6 l 1
 10 7 l 1
 10 8 l 1
 9 8 l 1
 8 8 l 1
 7 8 l 1
 6 8 l 1
 5 8 l 1
 4 8 l 1
 3 8 l 1
EndSplineSet
EndChar

StartChar: h
Encoding: 104 104 71
Width: 16
Flags: HW
LayerCount: 2
Fore
SplineSet
0 17 m 1
 1 17 l 1
 2 17 l 1
 3 17 l 1
 3 16 l 1
 3 15 l 1
 3 14 l 1
 3 13 l 1
 3 12 l 1
 3 11 l 1
 4 11 l 1
 5 11 l 1
 6 11 l 1
 7 11 l 1
 8 11 l 1
 9 11 l 1
 10 11 l 1
 11 11 l 1
 11 10 l 1
 12 10 l 1
 12 9 l 1
 13 9 l 1
 13 8 l 1
 13 7 l 1
 13 6 l 1
 13 5 l 1
 13 4 l 1
 13 3 l 1
 13 2 l 1
 13 1 l 1
 13 0 l 1
 12 0 l 1
 11 0 l 1
 10 0 l 1
 10 1 l 1
 10 2 l 1
 10 3 l 1
 10 4 l 1
 10 5 l 1
 10 6 l 1
 10 7 l 1
 9 7 l 1
 9 8 l 1
 8 8 l 1
 7 8 l 1
 6 8 l 1
 5 8 l 1
 4 8 l 1
 3 8 l 1
 3 7 l 1
 3 6 l 1
 3 5 l 1
 3 4 l 1
 3 3 l 1
 3 2 l 1
 3 1 l 1
 3 0 l 1
 2 0 l 1
 1 0 l 1
 0 0 l 1
 0 1 l 1
 0 2 l 1
 0 3 l 1
 0 4 l 1
 0 5 l 1
 0 6 l 1
 0 7 l 1
 0 8 l 1
 0 9 l 1
 0 10 l 1
 0 11 l 1
 0 12 l 1
 0 13 l 1
 0 14 l 1
 0 15 l 1
 0 16 l 1
 0 17 l 1
EndSplineSet
EndChar

StartChar: i
Encoding: 105 105 72
Width: 6
Flags: HW
LayerCount: 2
Fore
SplineSet
0 15 m 1
 1 15 l 1
 2 15 l 1
 3 15 l 1
 3 14 l 1
 3 13 l 1
 3 12 l 1
 2 12 l 1
 1 12 l 1
 0 12 l 1
 0 13 l 1
 0 14 l 1
 0 15 l 1
0 11 m 1
 1 11 l 1
 2 11 l 1
 3 11 l 1
 3 10 l 1
 3 9 l 1
 3 8 l 1
 3 7 l 1
 3 6 l 1
 3 5 l 1
 3 4 l 1
 3 3 l 1
 3 2 l 1
 3 1 l 1
 3 0 l 1
 2 0 l 1
 1 0 l 1
 0 0 l 1
 0 1 l 1
 0 2 l 1
 0 3 l 1
 0 4 l 1
 0 5 l 1
 0 6 l 1
 0 7 l 1
 0 8 l 1
 0 9 l 1
 0 10 l 1
 0 11 l 1
EndSplineSet
EndChar

StartChar: j
Encoding: 106 106 73
Width: 16
Flags: HW
LayerCount: 2
Fore
SplineSet
10 17 m 1
 11 17 l 1
 12 17 l 1
 13 17 l 1
 13 16 l 1
 13 15 l 1
 13 14 l 1
 12 14 l 1
 11 14 l 1
 10 14 l 1
 10 15 l 1
 10 16 l 1
 10 17 l 1
10 13 m 1
 11 13 l 1
 12 13 l 1
 13 13 l 1
 13 12 l 1
 13 11 l 1
 13 10 l 1
 13 9 l 1
 13 8 l 1
 13 7 l 1
 13 6 l 1
 13 5 l 1
 13 4 l 1
 13 3 l 1
 13 2 l 1
 12 2 l 1
 12 1 l 1
 11 1 l 1
 11 0 l 1
 10 0 l 1
 9 0 l 1
 8 0 l 1
 7 0 l 1
 6 0 l 1
 5 0 l 1
 4 0 l 1
 3 0 l 1
 2 0 l 1
 2 1 l 1
 1 1 l 1
 1 2 l 1
 0 2 l 1
 0 3 l 1
 0 4 l 1
 0 5 l 1
 0 6 l 1
 1 6 l 1
 2 6 l 1
 3 6 l 1
 3 5 l 1
 3 4 l 1
 4 4 l 1
 4 3 l 1
 5 3 l 1
 6 3 l 1
 7 3 l 1
 8 3 l 1
 9 3 l 1
 9 4 l 1
 10 4 l 1
 10 5 l 1
 10 6 l 1
 10 7 l 1
 10 8 l 1
 10 9 l 1
 10 10 l 1
 10 11 l 1
 10 12 l 1
 10 13 l 1
EndSplineSet
EndChar

StartChar: k
Encoding: 107 107 74
Width: 16
Flags: HW
LayerCount: 2
Fore
SplineSet
0 17 m 1
 1 17 l 1
 2 17 l 1
 3 17 l 1
 3 16 l 1
 3 15 l 1
 3 14 l 1
 3 13 l 1
 3 12 l 1
 3 11 l 1
 3 10 l 1
 3 9 l 1
 3 8 l 1
 3 7 l 1
 4 7 l 1
 5 7 l 1
 6 7 l 1
 7 7 l 1
 7 8 l 1
 8 8 l 1
 8 9 l 1
 9 9 l 1
 9 10 l 1
 10 10 l 1
 10 11 l 1
 11 11 l 1
 12 11 l 1
 13 11 l 1
 13 10 l 1
 13 9 l 1
 13 8 l 1
 12 8 l 1
 12 7 l 1
 11 7 l 1
 11 6 l 1
 10 6 l 1
 10 5 l 1
 11 5 l 1
 11 4 l 1
 12 4 l 1
 12 3 l 1
 13 3 l 1
 13 2 l 1
 13 1 l 1
 13 0 l 1
 12 0 l 1
 11 0 l 1
 10 0 l 1
 10 1 l 1
 9 1 l 1
 9 2 l 1
 8 2 l 1
 8 3 l 1
 7 3 l 1
 7 4 l 1
 6 4 l 1
 5 4 l 1
 4 4 l 1
 3 4 l 1
 3 3 l 1
 3 2 l 1
 3 1 l 1
 3 0 l 1
 2 0 l 1
 1 0 l 1
 0 0 l 1
 0 1 l 1
 0 2 l 1
 0 3 l 1
 0 4 l 1
 0 5 l 1
 0 6 l 1
 0 7 l 1
 0 8 l 1
 0 9 l 1
 0 10 l 1
 0 11 l 1
 0 12 l 1
 0 13 l 1
 0 14 l 1
 0 15 l 1
 0 16 l 1
 0 17 l 1
EndSplineSet
EndChar

StartChar: l
Encoding: 108 108 75
Width: 8
Flags: HW
LayerCount: 2
Fore
SplineSet
0 17 m 1
 1 17 l 1
 2 17 l 1
 3 17 l 1
 3 16 l 1
 3 15 l 1
 3 14 l 1
 3 13 l 1
 3 12 l 1
 3 11 l 1
 3 10 l 1
 3 9 l 1
 3 8 l 1
 3 7 l 1
 3 6 l 1
 3 5 l 1
 3 4 l 1
 3 3 l 1
 4 3 l 1
 5 3 l 1
 5 2 l 1
 5 1 l 1
 5 0 l 1
 4 0 l 1
 3 0 l 1
 2 0 l 1
 1 0 l 1
 1 1 l 1
 0 1 l 1
 0 2 l 1
 0 3 l 1
 0 4 l 1
 0 5 l 1
 0 6 l 1
 0 7 l 1
 0 8 l 1
 0 9 l 1
 0 10 l 1
 0 11 l 1
 0 12 l 1
 0 13 l 1
 0 14 l 1
 0 15 l 1
 0 16 l 1
 0 17 l 1
EndSplineSet
EndChar

StartChar: m
Encoding: 109 109 76
Width: 16
Flags: HW
LayerCount: 2
Fore
SplineSet
0 11 m 1
 1 11 l 1
 2 11 l 1
 3 11 l 1
 4 11 l 1
 5 11 l 1
 6 11 l 1
 7 11 l 1
 8 11 l 1
 9 11 l 1
 10 11 l 1
 11 11 l 1
 11 10 l 1
 12 10 l 1
 12 9 l 1
 13 9 l 1
 13 8 l 1
 13 7 l 1
 13 6 l 1
 13 5 l 1
 13 4 l 1
 13 3 l 1
 13 2 l 1
 13 1 l 1
 13 0 l 1
 12 0 l 1
 11 0 l 1
 10 0 l 1
 10 1 l 1
 10 2 l 1
 10 3 l 1
 10 4 l 1
 10 5 l 1
 10 6 l 1
 10 7 l 1
 10 8 l 1
 9 8 l 1
 8 8 l 1
 8 7 l 1
 8 6 l 1
 8 5 l 1
 8 4 l 1
 8 3 l 1
 8 2 l 1
 8 1 l 1
 8 0 l 1
 7 0 l 1
 6 0 l 1
 5 0 l 1
 5 1 l 1
 5 2 l 1
 5 3 l 1
 5 4 l 1
 5 5 l 1
 5 6 l 1
 5 7 l 1
 5 8 l 1
 4 8 l 1
 3 8 l 1
 3 7 l 1
 3 6 l 1
 3 5 l 1
 3 4 l 1
 3 3 l 1
 3 2 l 1
 3 1 l 1
 3 0 l 1
 2 0 l 1
 1 0 l 1
 0 0 l 1
 0 1 l 1
 0 2 l 1
 0 3 l 1
 0 4 l 1
 0 5 l 1
 0 6 l 1
 0 7 l 1
 0 8 l 1
 0 9 l 1
 0 10 l 1
 0 11 l 1
EndSplineSet
EndChar

StartChar: n
Encoding: 110 110 77
Width: 16
Flags: HW
LayerCount: 2
Fore
SplineSet
0 11 m 1
 1 11 l 1
 2 11 l 1
 3 11 l 1
 4 11 l 1
 5 11 l 1
 6 11 l 1
 7 11 l 1
 8 11 l 1
 9 11 l 1
 10 11 l 1
 11 11 l 1
 11 10 l 1
 12 10 l 1
 12 9 l 1
 13 9 l 1
 13 8 l 1
 13 7 l 1
 13 6 l 1
 13 5 l 1
 13 4 l 1
 13 3 l 1
 13 2 l 1
 13 1 l 1
 13 0 l 1
 12 0 l 1
 11 0 l 1
 10 0 l 1
 10 1 l 1
 10 2 l 1
 10 3 l 1
 10 4 l 1
 10 5 l 1
 10 6 l 1
 10 7 l 1
 9 7 l 1
 9 8 l 1
 8 8 l 1
 7 8 l 1
 6 8 l 1
 5 8 l 1
 4 8 l 1
 3 8 l 1
 3 7 l 1
 3 6 l 1
 3 5 l 1
 3 4 l 1
 3 3 l 1
 3 2 l 1
 3 1 l 1
 3 0 l 1
 2 0 l 1
 1 0 l 1
 0 0 l 1
 0 1 l 1
 0 2 l 1
 0 3 l 1
 0 4 l 1
 0 5 l 1
 0 6 l 1
 0 7 l 1
 0 8 l 1
 0 9 l 1
 0 10 l 1
 0 11 l 1
EndSplineSet
EndChar

StartChar: o
Encoding: 111 111 78
Width: 16
Flags: HW
LayerCount: 2
Fore
SplineSet
2 11 m 5
 3 11 l 5
 4 11 l 5
 5 11 l 5
 6 11 l 5
 7 11 l 5
 8 11 l 5
 9 11 l 5
 10 11 l 5
 11 11 l 5
 11 10 l 5
 12 10 l 5
 12 9 l 5
 13 9 l 5
 13 8 l 5
 13 7 l 5
 13 6 l 5
 13 5 l 5
 13 4 l 5
 13 3 l 5
 13 2 l 5
 12 2 l 5
 12 1 l 5
 11 1 l 5
 11 0 l 5
 10 0 l 5
 9 0 l 5
 8 0 l 5
 7 0 l 5
 6 0 l 5
 5 0 l 5
 4 0 l 5
 3 0 l 5
 2 0 l 5
 2 1 l 5
 1 1 l 5
 1 2 l 5
 0 2 l 5
 0 3 l 5
 0 4 l 5
 0 5 l 5
 0 6 l 5
 0 7 l 5
 0 8 l 5
 0 9 l 5
 1 9 l 5
 1 10 l 5
 2 10 l 5
 2 11 l 5
4 8 m 5
 4 7 l 5
 3 7 l 5
 3 6 l 5
 3 5 l 5
 3 4 l 5
 4 4 l 5
 4 3 l 5
 5 3 l 5
 6 3 l 5
 7 3 l 5
 8 3 l 5
 9 3 l 5
 9 4 l 5
 10 4 l 5
 10 5 l 5
 10 6 l 5
 10 7 l 5
 9 7 l 5
 9 8 l 5
 8 8 l 5
 7 8 l 5
 6 8 l 5
 5 8 l 5
 4 8 l 5
EndSplineSet
EndChar

StartChar: p
Encoding: 112 112 79
Width: 16
Flags: HW
LayerCount: 2
Fore
SplineSet
0 11 m 1
 1 11 l 1
 2 11 l 1
 3 11 l 1
 4 11 l 1
 5 11 l 1
 6 11 l 1
 7 11 l 1
 8 11 l 1
 9 11 l 1
 10 11 l 1
 11 11 l 1
 11 10 l 1
 12 10 l 1
 12 9 l 1
 13 9 l 1
 13 8 l 1
 13 7 l 1
 13 6 l 1
 13 5 l 1
 13 4 l 1
 13 3 l 1
 13 2 l 1
 12 2 l 1
 12 1 l 1
 11 1 l 1
 11 0 l 1
 10 0 l 1
 9 0 l 1
 8 0 l 1
 7 0 l 1
 6 0 l 1
 5 0 l 1
 4 0 l 1
 3 0 l 1
 3 -1 l 1
 3 -2 l 1
 3 -3 l 1
 3 -4 l 1
 3 -5 l 1
 3 -6 l 1
 2 -6 l 1
 1 -6 l 1
 0 -6 l 1
 0 -5 l 1
 0 -4 l 1
 0 -3 l 1
 0 -2 l 1
 0 -1 l 1
 0 0 l 1
 0 1 l 1
 0 2 l 1
 0 3 l 1
 0 4 l 1
 0 5 l 1
 0 6 l 1
 0 7 l 1
 0 8 l 1
 0 9 l 1
 0 10 l 1
 0 11 l 1
3 8 m 1
 3 7 l 1
 3 6 l 1
 3 5 l 1
 3 4 l 1
 3 3 l 1
 4 3 l 1
 5 3 l 1
 6 3 l 1
 7 3 l 1
 8 3 l 1
 9 3 l 1
 10 3 l 1
 10 4 l 1
 10 5 l 1
 10 6 l 1
 10 7 l 1
 10 8 l 1
 9 8 l 1
 8 8 l 1
 7 8 l 1
 6 8 l 1
 5 8 l 1
 4 8 l 1
 3 8 l 1
EndSplineSet
EndChar

StartChar: q
Encoding: 113 113 80
Width: 16
Flags: HW
LayerCount: 2
Fore
SplineSet
2 11 m 1
 3 11 l 1
 4 11 l 1
 5 11 l 1
 6 11 l 1
 7 11 l 1
 8 11 l 1
 9 11 l 1
 10 11 l 1
 11 11 l 1
 12 11 l 1
 13 11 l 1
 13 10 l 1
 13 9 l 1
 13 8 l 1
 13 7 l 1
 13 6 l 1
 13 5 l 1
 13 4 l 1
 13 3 l 1
 13 2 l 1
 13 1 l 1
 13 0 l 1
 13 -1 l 1
 13 -2 l 1
 13 -3 l 1
 13 -4 l 1
 13 -5 l 1
 13 -6 l 1
 12 -6 l 1
 11 -6 l 1
 10 -6 l 1
 10 -5 l 1
 10 -4 l 1
 10 -3 l 1
 10 -2 l 1
 10 -1 l 1
 10 0 l 1
 9 0 l 1
 8 0 l 1
 7 0 l 1
 6 0 l 1
 5 0 l 1
 4 0 l 1
 3 0 l 1
 2 0 l 1
 2 1 l 1
 1 1 l 1
 1 2 l 1
 0 2 l 1
 0 3 l 1
 0 4 l 1
 0 5 l 1
 0 6 l 1
 0 7 l 1
 0 8 l 1
 0 9 l 1
 1 9 l 1
 1 10 l 1
 2 10 l 1
 2 11 l 1
3 8 m 1
 3 7 l 1
 3 6 l 1
 3 5 l 1
 3 4 l 1
 3 3 l 1
 4 3 l 1
 5 3 l 1
 6 3 l 1
 7 3 l 1
 8 3 l 1
 9 3 l 1
 10 3 l 1
 10 4 l 1
 10 5 l 1
 10 6 l 1
 10 7 l 1
 10 8 l 1
 9 8 l 1
 8 8 l 1
 7 8 l 1
 6 8 l 1
 5 8 l 1
 4 8 l 1
 3 8 l 1
EndSplineSet
EndChar

StartChar: r
Encoding: 114 114 81
Width: 16
Flags: HW
LayerCount: 2
Fore
SplineSet
0 11 m 1
 1 11 l 1
 2 11 l 1
 3 11 l 1
 3 10 l 1
 4 10 l 1
 4 11 l 1
 5 11 l 1
 6 11 l 1
 7 11 l 1
 8 11 l 1
 9 11 l 1
 10 11 l 1
 11 11 l 1
 11 10 l 1
 12 10 l 1
 12 9 l 1
 13 9 l 1
 13 8 l 1
 13 7 l 1
 13 6 l 1
 12 6 l 1
 11 6 l 1
 11 7 l 1
 10 7 l 1
 10 8 l 1
 9 8 l 1
 8 8 l 1
 7 8 l 1
 6 8 l 1
 5 8 l 1
 5 7 l 1
 4 7 l 1
 4 6 l 1
 3 6 l 1
 3 5 l 1
 3 4 l 1
 3 3 l 1
 3 2 l 1
 3 1 l 1
 3 0 l 1
 2 0 l 1
 1 0 l 1
 0 0 l 1
 0 1 l 1
 0 2 l 1
 0 3 l 1
 0 4 l 1
 0 5 l 1
 0 6 l 1
 0 7 l 1
 0 8 l 1
 0 9 l 1
 0 10 l 1
 0 11 l 1
EndSplineSet
EndChar

StartChar: s
Encoding: 115 115 82
Width: 16
Flags: HW
LayerCount: 2
Fore
SplineSet
2 11 m 1
 3 11 l 1
 4 11 l 1
 5 11 l 1
 6 11 l 1
 7 11 l 1
 8 11 l 1
 9 11 l 1
 10 11 l 1
 11 11 l 1
 11 10 l 1
 12 10 l 1
 12 9 l 1
 13 9 l 1
 13 8 l 1
 12 8 l 1
 11 8 l 1
 10 8 l 1
 9 8 l 1
 8 8 l 1
 7 8 l 1
 6 8 l 1
 5 8 l 1
 4 8 l 1
 3 8 l 1
 3 7 l 1
 4 7 l 1
 5 7 l 1
 6 7 l 1
 7 7 l 1
 8 7 l 1
 9 7 l 1
 10 7 l 1
 11 7 l 1
 11 6 l 1
 12 6 l 1
 12 5 l 1
 13 5 l 1
 13 4 l 1
 13 3 l 1
 13 2 l 1
 12 2 l 1
 12 1 l 1
 11 1 l 1
 11 0 l 1
 10 0 l 1
 9 0 l 1
 8 0 l 1
 7 0 l 1
 6 0 l 1
 5 0 l 1
 4 0 l 1
 3 0 l 1
 2 0 l 1
 2 1 l 1
 1 1 l 1
 1 2 l 1
 0 2 l 1
 0 3 l 1
 1 3 l 1
 2 3 l 1
 3 3 l 1
 4 3 l 1
 5 3 l 1
 6 3 l 1
 7 3 l 1
 8 3 l 1
 9 3 l 1
 10 3 l 1
 10 4 l 1
 9 4 l 1
 8 4 l 1
 7 4 l 1
 6 4 l 1
 5 4 l 1
 4 4 l 1
 3 4 l 1
 2 4 l 1
 2 5 l 1
 1 5 l 1
 1 6 l 1
 0 6 l 1
 0 7 l 1
 0 8 l 1
 0 9 l 1
 1 9 l 1
 1 10 l 1
 2 10 l 1
 2 11 l 1
EndSplineSet
EndChar

StartChar: t
Encoding: 116 116 83
Width: 16
Flags: HW
LayerCount: 2
Fore
SplineSet
3 17 m 1
 4 17 l 1
 5 17 l 1
 6 17 l 1
 6 16 l 1
 6 15 l 1
 6 14 l 1
 6 13 l 1
 6 12 l 1
 6 11 l 1
 7 11 l 1
 8 11 l 1
 9 11 l 1
 9 10 l 1
 9 9 l 1
 9 8 l 1
 8 8 l 1
 7 8 l 1
 6 8 l 1
 6 7 l 1
 6 6 l 1
 6 5 l 1
 6 4 l 1
 6 3 l 1
 7 3 l 1
 8 3 l 1
 9 3 l 1
 10 3 l 1
 11 3 l 1
 11 2 l 1
 11 1 l 1
 11 0 l 1
 10 0 l 1
 9 0 l 1
 8 0 l 1
 7 0 l 1
 6 0 l 1
 5 0 l 1
 5 1 l 1
 4 1 l 1
 4 2 l 1
 3 2 l 1
 3 3 l 1
 3 4 l 1
 3 5 l 1
 3 6 l 1
 3 7 l 1
 3 8 l 1
 2 8 l 1
 1 8 l 1
 0 8 l 1
 0 9 l 1
 0 10 l 1
 0 11 l 1
 1 11 l 1
 2 11 l 1
 3 11 l 1
 3 12 l 1
 3 13 l 1
 3 14 l 1
 3 15 l 1
 3 16 l 1
 3 17 l 1
EndSplineSet
EndChar

StartChar: u
Encoding: 117 117 84
Width: 16
Flags: HW
LayerCount: 2
Fore
SplineSet
0 11 m 1
 1 11 l 1
 2 11 l 1
 3 11 l 1
 3 10 l 1
 3 9 l 1
 3 8 l 1
 3 7 l 1
 3 6 l 1
 3 5 l 1
 3 4 l 1
 4 4 l 1
 4 3 l 1
 5 3 l 1
 6 3 l 1
 7 3 l 1
 8 3 l 1
 9 3 l 1
 9 4 l 1
 10 4 l 1
 10 5 l 1
 10 6 l 1
 10 7 l 1
 10 8 l 1
 10 9 l 1
 10 10 l 1
 10 11 l 1
 11 11 l 1
 12 11 l 1
 13 11 l 1
 13 10 l 1
 13 9 l 1
 13 8 l 1
 13 7 l 1
 13 6 l 1
 13 5 l 1
 13 4 l 1
 13 3 l 1
 13 2 l 1
 12 2 l 1
 12 1 l 1
 11 1 l 1
 11 0 l 1
 10 0 l 1
 9 0 l 1
 8 0 l 1
 7 0 l 1
 6 0 l 1
 5 0 l 1
 4 0 l 1
 3 0 l 1
 2 0 l 1
 2 1 l 1
 1 1 l 1
 1 2 l 1
 0 2 l 1
 0 3 l 1
 0 4 l 1
 0 5 l 1
 0 6 l 1
 0 7 l 1
 0 8 l 1
 0 9 l 1
 0 10 l 1
 0 11 l 1
EndSplineSet
EndChar

StartChar: v
Encoding: 118 118 85
Width: 16
Flags: HW
LayerCount: 2
Fore
SplineSet
0 11 m 1
 1 11 l 1
 2 11 l 1
 3 11 l 1
 3 10 l 1
 3 9 l 1
 3 8 l 1
 3 7 l 1
 3 6 l 1
 4 6 l 1
 4 5 l 1
 5 5 l 1
 5 4 l 1
 6 4 l 1
 6 3 l 1
 7 3 l 1
 7 4 l 1
 8 4 l 1
 8 5 l 1
 9 5 l 1
 9 6 l 1
 10 6 l 1
 10 7 l 1
 10 8 l 1
 10 9 l 1
 10 10 l 1
 10 11 l 1
 11 11 l 1
 12 11 l 1
 13 11 l 1
 13 10 l 1
 13 9 l 1
 13 8 l 1
 13 7 l 1
 13 6 l 1
 13 5 l 1
 12 5 l 1
 12 4 l 1
 11 4 l 1
 11 3 l 1
 10 3 l 1
 10 2 l 1
 9 2 l 1
 9 1 l 1
 8 1 l 1
 8 0 l 1
 7 0 l 1
 6 0 l 1
 5 0 l 1
 5 1 l 1
 4 1 l 1
 4 2 l 1
 3 2 l 1
 3 3 l 1
 2 3 l 1
 2 4 l 1
 1 4 l 1
 1 5 l 1
 0 5 l 1
 0 6 l 1
 0 7 l 1
 0 8 l 1
 0 9 l 1
 0 10 l 1
 0 11 l 1
EndSplineSet
EndChar

StartChar: w
Encoding: 119 119 86
Width: 16
Flags: HW
LayerCount: 2
Fore
SplineSet
0 11 m 1
 1 11 l 1
 2 11 l 1
 3 11 l 1
 3 10 l 1
 3 9 l 1
 3 8 l 1
 3 7 l 1
 3 6 l 1
 3 5 l 1
 3 4 l 1
 4 4 l 1
 4 3 l 1
 5 3 l 1
 5 4 l 1
 5 5 l 1
 5 6 l 1
 5 7 l 1
 6 7 l 1
 7 7 l 1
 8 7 l 1
 8 6 l 1
 8 5 l 1
 8 4 l 1
 8 3 l 1
 9 3 l 1
 9 4 l 1
 10 4 l 1
 10 5 l 1
 10 6 l 1
 10 7 l 1
 10 8 l 1
 10 9 l 1
 10 10 l 1
 10 11 l 1
 11 11 l 1
 12 11 l 1
 13 11 l 1
 13 10 l 1
 13 9 l 1
 13 8 l 1
 13 7 l 1
 13 6 l 1
 13 5 l 1
 13 4 l 1
 13 3 l 1
 13 2 l 1
 12 2 l 1
 12 1 l 1
 11 1 l 1
 11 0 l 1
 10 0 l 1
 9 0 l 1
 8 0 l 1
 7 0 l 1
 6 0 l 1
 5 0 l 1
 4 0 l 1
 3 0 l 1
 2 0 l 1
 2 1 l 1
 1 1 l 1
 1 2 l 1
 0 2 l 1
 0 3 l 1
 0 4 l 1
 0 5 l 1
 0 6 l 1
 0 7 l 1
 0 8 l 1
 0 9 l 1
 0 10 l 1
 0 11 l 1
EndSplineSet
EndChar

StartChar: x
Encoding: 120 120 87
Width: 16
Flags: HW
LayerCount: 2
Fore
SplineSet
0 11 m 1
 1 11 l 1
 2 11 l 1
 3 11 l 1
 3 10 l 1
 4 10 l 1
 4 9 l 1
 5 9 l 1
 5 8 l 1
 6 8 l 1
 7 8 l 1
 8 8 l 1
 8 9 l 1
 9 9 l 1
 9 10 l 1
 10 10 l 1
 10 11 l 1
 11 11 l 1
 12 11 l 1
 13 11 l 1
 13 10 l 1
 13 9 l 1
 13 8 l 1
 12 8 l 1
 12 7 l 1
 11 7 l 1
 11 6 l 1
 10 6 l 1
 10 5 l 1
 11 5 l 1
 11 4 l 1
 12 4 l 1
 12 3 l 1
 13 3 l 1
 13 2 l 1
 13 1 l 1
 13 0 l 1
 12 0 l 1
 11 0 l 1
 10 0 l 1
 10 1 l 1
 9 1 l 1
 9 2 l 1
 8 2 l 1
 8 3 l 1
 7 3 l 1
 6 3 l 1
 5 3 l 1
 5 2 l 1
 4 2 l 1
 4 1 l 1
 3 1 l 1
 3 0 l 1
 2 0 l 1
 1 0 l 1
 0 0 l 1
 0 1 l 1
 0 2 l 1
 0 3 l 1
 1 3 l 1
 1 4 l 1
 2 4 l 1
 2 5 l 1
 3 5 l 1
 3 6 l 1
 2 6 l 1
 2 7 l 1
 1 7 l 1
 1 8 l 1
 0 8 l 1
 0 9 l 1
 0 10 l 1
 0 11 l 1
EndSplineSet
EndChar

StartChar: y
Encoding: 121 121 88
Width: 16
Flags: HW
LayerCount: 2
Fore
SplineSet
0 11 m 1
 1 11 l 1
 2 11 l 1
 3 11 l 1
 3 10 l 1
 3 9 l 1
 3 8 l 1
 3 7 l 1
 3 6 l 1
 3 5 l 1
 3 4 l 1
 4 4 l 1
 4 3 l 1
 5 3 l 1
 6 3 l 1
 7 3 l 1
 8 3 l 1
 9 3 l 1
 9 4 l 1
 10 4 l 1
 10 5 l 1
 10 6 l 1
 10 7 l 1
 10 8 l 1
 10 9 l 1
 10 10 l 1
 10 11 l 1
 11 11 l 1
 12 11 l 1
 13 11 l 1
 13 10 l 1
 13 9 l 1
 13 8 l 1
 13 7 l 1
 13 6 l 1
 13 5 l 1
 13 4 l 1
 13 3 l 1
 13 2 l 1
 13 1 l 1
 13 0 l 1
 13 -1 l 1
 13 -2 l 1
 13 -3 l 1
 13 -4 l 1
 12 -4 l 1
 12 -5 l 1
 11 -5 l 1
 11 -6 l 1
 10 -6 l 1
 9 -6 l 1
 8 -6 l 1
 7 -6 l 1
 6 -6 l 1
 5 -6 l 1
 4 -6 l 1
 3 -6 l 1
 2 -6 l 1
 2 -5 l 1
 1 -5 l 1
 1 -4 l 1
 0 -4 l 1
 0 -3 l 1
 1 -3 l 1
 2 -3 l 1
 3 -3 l 1
 4 -3 l 1
 5 -3 l 1
 6 -3 l 1
 7 -3 l 1
 8 -3 l 1
 9 -3 l 1
 9 -2 l 1
 10 -2 l 1
 10 -1 l 1
 10 0 l 1
 9 0 l 1
 8 0 l 1
 7 0 l 1
 6 0 l 1
 5 0 l 1
 4 0 l 1
 3 0 l 1
 2 0 l 1
 2 1 l 1
 1 1 l 1
 1 2 l 1
 0 2 l 1
 0 3 l 1
 0 4 l 1
 0 5 l 1
 0 6 l 1
 0 7 l 1
 0 8 l 1
 0 9 l 1
 0 10 l 1
 0 11 l 1
EndSplineSet
EndChar

StartChar: z
Encoding: 122 122 89
Width: 16
Flags: HW
LayerCount: 2
Fore
SplineSet
0 11 m 1
 1 11 l 1
 2 11 l 1
 3 11 l 1
 4 11 l 1
 5 11 l 1
 6 11 l 1
 7 11 l 1
 8 11 l 1
 9 11 l 1
 10 11 l 1
 11 11 l 1
 12 11 l 1
 13 11 l 1
 13 10 l 1
 13 9 l 1
 13 8 l 1
 12 8 l 1
 11 8 l 1
 11 7 l 1
 10 7 l 1
 10 6 l 1
 9 6 l 1
 9 5 l 1
 8 5 l 1
 8 4 l 1
 7 4 l 1
 7 3 l 1
 8 3 l 1
 9 3 l 1
 10 3 l 1
 11 3 l 1
 12 3 l 1
 13 3 l 1
 13 2 l 1
 13 1 l 1
 13 0 l 1
 12 0 l 1
 11 0 l 1
 10 0 l 1
 9 0 l 1
 8 0 l 1
 7 0 l 1
 6 0 l 1
 5 0 l 1
 4 0 l 1
 3 0 l 1
 2 0 l 1
 1 0 l 1
 0 0 l 1
 0 1 l 1
 0 2 l 1
 0 3 l 1
 1 3 l 1
 2 3 l 1
 2 4 l 1
 3 4 l 1
 3 5 l 1
 4 5 l 1
 4 6 l 1
 5 6 l 1
 5 7 l 1
 6 7 l 1
 6 8 l 1
 5 8 l 1
 4 8 l 1
 3 8 l 1
 2 8 l 1
 1 8 l 1
 0 8 l 1
 0 9 l 1
 0 10 l 1
 0 11 l 1
EndSplineSet
EndChar

StartChar: braceleft
Encoding: 123 123 90
Width: 10
Flags: HW
LayerCount: 2
Fore
SplineSet
3 17 m 1
 4 17 l 1
 5 17 l 1
 6 17 l 1
 7 17 l 1
 7 16 l 1
 7 15 l 1
 7 14 l 1
 6 14 l 1
 5 14 l 1
 5 13 l 1
 4 13 l 1
 4 12 l 1
 4 11 l 1
 4 10 l 1
 4 9 l 1
 3 9 l 1
 3 8 l 1
 4 8 l 1
 4 7 l 1
 4 6 l 1
 4 5 l 1
 4 4 l 1
 5 4 l 1
 5 3 l 1
 6 3 l 1
 7 3 l 1
 7 2 l 1
 7 1 l 1
 7 0 l 1
 6 0 l 1
 5 0 l 1
 4 0 l 1
 3 0 l 1
 3 1 l 1
 2 1 l 1
 2 2 l 1
 1 2 l 1
 1 3 l 1
 1 4 l 1
 1 5 l 1
 1 6 l 1
 1 7 l 1
 0 7 l 1
 0 8 l 1
 0 9 l 1
 0 10 l 1
 1 10 l 1
 1 11 l 1
 1 12 l 1
 1 13 l 1
 1 14 l 1
 1 15 l 1
 2 15 l 1
 2 16 l 1
 3 16 l 1
 3 17 l 1
EndSplineSet
EndChar

StartChar: bar
Encoding: 124 124 91
Width: 6
Flags: HW
LayerCount: 2
Fore
SplineSet
0 17 m 1
 1 17 l 1
 2 17 l 1
 3 17 l 1
 3 16 l 1
 3 15 l 1
 3 14 l 1
 3 13 l 1
 3 12 l 1
 3 11 l 1
 3 10 l 1
 3 9 l 1
 3 8 l 1
 3 7 l 1
 3 6 l 1
 3 5 l 1
 3 4 l 1
 3 3 l 1
 3 2 l 1
 3 1 l 1
 3 0 l 1
 2 0 l 1
 1 0 l 1
 0 0 l 1
 0 1 l 1
 0 2 l 1
 0 3 l 1
 0 4 l 1
 0 5 l 1
 0 6 l 1
 0 7 l 1
 0 8 l 1
 0 9 l 1
 0 10 l 1
 0 11 l 1
 0 12 l 1
 0 13 l 1
 0 14 l 1
 0 15 l 1
 0 16 l 1
 0 17 l 1
EndSplineSet
EndChar

StartChar: braceright
Encoding: 125 125 92
Width: 10
Flags: HW
LayerCount: 2
Fore
SplineSet
0 17 m 1
 1 17 l 1
 2 17 l 1
 3 17 l 1
 4 17 l 1
 4 16 l 1
 5 16 l 1
 5 15 l 1
 6 15 l 1
 6 14 l 1
 6 13 l 1
 6 12 l 1
 6 11 l 1
 6 10 l 1
 7 10 l 1
 7 9 l 1
 7 8 l 1
 7 7 l 1
 6 7 l 1
 6 6 l 1
 6 5 l 1
 6 4 l 1
 6 3 l 1
 6 2 l 1
 5 2 l 1
 5 1 l 1
 4 1 l 1
 4 0 l 1
 3 0 l 1
 2 0 l 1
 1 0 l 1
 0 0 l 1
 0 1 l 1
 0 2 l 1
 0 3 l 1
 1 3 l 1
 2 3 l 1
 2 4 l 1
 3 4 l 1
 3 5 l 1
 3 6 l 1
 3 7 l 1
 3 8 l 1
 4 8 l 1
 4 9 l 1
 3 9 l 1
 3 10 l 1
 3 11 l 1
 3 12 l 1
 3 13 l 1
 2 13 l 1
 2 14 l 1
 1 14 l 1
 0 14 l 1
 0 15 l 1
 0 16 l 1
 0 17 l 1
EndSplineSet
EndChar

StartChar: asciitilde
Encoding: 126 126 93
Width: 16
Flags: HWO
LayerCount: 2
Fore
SplineSet
2 11 m 1
 3 11 l 1
 4 11 l 1
 5 11 l 1
 6 11 l 1
 7 11 l 1
 7 10 l 1
 8 10 l 1
 8 9 l 1
 9 9 l 1
 9 10 l 1
 10 10 l 1
 10 11 l 1
 11 11 l 1
 12 11 l 1
 13 11 l 1
 13 10 l 1
 13 9 l 1
 13 8 l 1
 12 8 l 1
 12 7 l 1
 11 7 l 1
 11 6 l 1
 10 6 l 1
 9 6 l 1
 8 6 l 1
 7 6 l 1
 6 6 l 1
 6 7 l 1
 5 7 l 1
 5 8 l 1
 4 8 l 1
 4 7 l 1
 3 7 l 1
 3 6 l 1
 2 6 l 1
 1 6 l 1
 0 6 l 1
 0 7 l 1
 0 8 l 1
 0 9 l 1
 1 9 l 1
 1 10 l 1
 2 10 l 1
 2 11 l 1
EndSplineSet
EndChar
